ply
format ascii 1.0
comment https://github.com/mikedh/trimesh
element vertex 514
property float x
property float y
property float z
element face 946
property list uchar int vertex_indices
end_header
0.00000000 0.00000000 0.00000000
0.30000001 0.00000000 0.00000000
0.30000001 0.30000001 0.00000000
0.00000000 0.30000001 0.00000000
0.01500000 0.00000000 0.00000000
0.03000000 0.00000000 0.00000000
0.04500000 0.00000000 0.00000000
0.06000000 0.00000000 0.00000000
0.07500000 0.00000000 0.00000000
0.09000000 0.00000000 0.00000000
0.10500000 0.00000000 0.00000000
0.12000000 0.00000000 0.00000000
0.13500001 0.00000000 0.00000000
0.15000001 0.00000000 0.00000000
0.16500001 0.00000000 0.00000000
0.18000001 0.00000000 0.00000000
0.19499999 0.00000000 0.00000000
0.20999999 0.00000000 0.00000000
0.22499999 0.00000000 0.00000000
0.23999999 0.00000000 0.00000000
0.25500000 0.00000000 0.00000000
0.27000001 0.00000000 0.00000000
0.28500000 0.00000000 0.00000000
0.30000001 0.01500000 0.00000000
0.30000001 0.03000000 0.00000000
0.30000001 0.04500000 0.00000000
0.30000001 0.06000000 0.00000000
0.30000001 0.07500000 0.00000000
0.30000001 0.09000000 0.00000000
0.30000001 0.10500000 0.00000000
0.30000001 0.12000000 0.00000000
0.30000001 0.13500001 0.00000000
0.30000001 0.15000001 0.00000000
0.30000001 0.16500001 0.00000000
0.30000001 0.18000001 0.00000000
0.30000001 0.19499999 0.00000000
0.30000001 0.20999999 0.00000000
0.30000001 0.22499999 0.00000000
0.30000001 0.23999999 0.00000000
0.30000001 0.25500000 0.00000000
0.30000001 0.27000001 0.00000000
0.30000001 0.28500000 0.00000000
0.28500000 0.30000001 0.00000000
0.27000001 0.30000001 0.00000000
0.25500000 0.30000001 0.00000000
0.23999999 0.30000001 0.00000000
0.22499999 0.30000001 0.00000000
0.20999999 0.30000001 0.00000000
0.19499999 0.30000001 0.00000000
0.18000001 0.30000001 0.00000000
0.16500001 0.30000001 0.00000000
0.15000001 0.30000001 0.00000000
0.13500001 0.30000001 0.00000000
0.12000000 0.30000001 0.00000000
0.10500000 0.30000001 0.00000000
0.09000000 0.30000001 0.00000000
0.07500000 0.30000001 0.00000000
0.06000000 0.30000001 0.00000000
0.04500000 0.30000001 0.00000000
0.03000000 0.30000001 0.00000000
0.01500000 0.30000001 0.00000000
0.00000000 0.28500000 0.00000000
0.00000000 0.27000001 0.00000000
0.00000000 0.25500000 0.00000000
0.00000000 0.23999999 0.00000000
0.00000000 0.22499999 0.00000000
0.00000000 0.20999999 0.00000000
0.00000000 0.19499999 0.00000000
0.00000000 0.18000001 0.00000000
0.00000000 0.16500001 0.00000000
0.00000000 0.15000001 0.00000000
0.00000000 0.13500001 0.00000000
0.00000000 0.12000000 0.00000000
0.00000000 0.10500000 0.00000000
0.00000000 0.09000000 0.00000000
0.00000000 0.07500000 0.00000000
0.00000000 0.06000000 0.00000000
0.00000000 0.04500000 0.00000000
0.00000000 0.03000000 0.00000000
0.00000000 0.01500000 0.00000000
0.01513997 0.14315648 0.00000000
0.15750000 0.01299038 0.00000000
0.28980228 0.15703508 0.00000000
0.14250000 0.28700963 0.00000000
0.09815992 0.01339350 0.00000000
0.28683880 0.09765453 0.00000000
0.01299038 0.20250000 0.00000000
0.20250000 0.28700963 0.00000000
0.01267661 0.09750000 0.00000000
0.09750000 0.28700963 0.00000000
0.20250000 0.01299038 0.00000000
0.28884655 0.20228203 0.00000000
0.05250000 0.28700963 0.00000000
0.28700963 0.24750000 0.00000000
0.01256465 0.05341041 0.00000000
0.24810065 0.01257304 0.00000000
0.24803194 0.28573179 0.00000000
0.01332815 0.24763803 0.00000000
0.28667185 0.05236197 0.00000000
0.05250000 0.01299038 0.00000000
0.17250000 0.28700963 0.00000000
0.01187142 0.17282851 0.00000000
0.28653949 0.12676290 0.00000000
0.12750000 0.01291983 0.00000000
0.02308013 0.28734455 0.00000000
0.28734455 0.27691987 0.00000000
0.01272246 0.02247557 0.00000000
0.27691987 0.01265544 0.00000000
0.12750000 0.28700963 0.00000000
0.13500001 0.27401924 0.00000000
0.12000000 0.27401924 0.00000000
0.12750000 0.26102886 0.00000000
0.14250000 0.26102886 0.00000000
0.13500001 0.24803847 0.00000000
0.15000001 0.24803847 0.00000000
0.14250000 0.23504810 0.00000000
0.15750000 0.23504810 0.00000000
0.15000001 0.22205772 0.00000000
0.13500001 0.22205772 0.00000000
0.14250000 0.20906733 0.00000000
0.15750000 0.20906733 0.00000000
0.15000001 0.19607694 0.00000000
0.16500001 0.19607694 0.00000000
0.15750000 0.18308657 0.00000000
0.14250000 0.18308657 0.00000000
0.15000001 0.17009619 0.00000000
0.16500001 0.17009619 0.00000000
0.15750000 0.15710580 0.00000000
0.14250000 0.15710580 0.00000000
0.15000001 0.14411543 0.00000000
0.13500001 0.14411543 0.00000000
0.16500001 0.14411543 0.00000000
0.14250000 0.13112505 0.00000000
0.12750000 0.13112505 0.00000000
0.12000000 0.14411543 0.00000000
0.11250000 0.13112505 0.00000000
0.13500001 0.11813466 0.00000000
0.10500000 0.14411543 0.00000000
0.09750000 0.13112505 0.00000000
0.09000000 0.14411543 0.00000000
0.08250000 0.13112505 0.00000000
0.09000000 0.11813466 0.00000000
0.09750000 0.15710580 0.00000000
0.08250000 0.15710580 0.00000000
0.09000000 0.17009619 0.00000000
0.07500000 0.17009619 0.00000000
0.08250000 0.18308657 0.00000000
0.07500000 0.11813466 0.00000000
0.08250000 0.10514428 0.00000000
0.17250000 0.20906733 0.00000000
0.18000001 0.19607694 0.00000000
0.18750000 0.20906733 0.00000000
0.19499999 0.19607694 0.00000000
0.20250000 0.20906733 0.00000000
0.20999999 0.19607694 0.00000000
0.21750000 0.20906733 0.00000000
0.22499999 0.19607694 0.00000000
0.21750000 0.18308657 0.00000000
0.15000001 0.11813466 0.00000000
0.14250000 0.10514428 0.00000000
0.15750000 0.10514428 0.00000000
0.15000001 0.09215390 0.00000000
0.16500001 0.09215390 0.00000000
0.15750000 0.07916352 0.00000000
0.14250000 0.07916352 0.00000000
0.17250000 0.07916352 0.00000000
0.18000001 0.09215390 0.00000000
0.18750000 0.07916352 0.00000000
0.19499999 0.09215390 0.00000000
0.20250000 0.07916352 0.00000000
0.20999999 0.09215390 0.00000000
0.21750000 0.07916352 0.00000000
0.22499999 0.09215390 0.00000000
0.21750000 0.10514428 0.00000000
0.12000000 0.24803847 0.00000000
0.19499999 0.22205772 0.00000000
0.23250000 0.20906733 0.00000000
0.22499999 0.22205772 0.00000000
0.23250000 0.07916352 0.00000000
0.22499999 0.06617314 0.00000000
0.18000001 0.06624369 0.00000000
0.23250000 0.18308657 0.00000000
0.22499999 0.17009619 0.00000000
0.23250000 0.10514428 0.00000000
0.06750000 0.18308657 0.00000000
0.07500000 0.19607694 0.00000000
0.06750000 0.15710580 0.00000000
0.06750000 0.10514428 0.00000000
0.07500000 0.09215390 0.00000000
0.09000000 0.09215390 0.00000000
0.08250000 0.07916352 0.00000000
0.06750000 0.07916352 0.00000000
0.07500000 0.06617314 0.00000000
0.09000000 0.06617314 0.00000000
0.15000001 0.06617314 0.00000000
0.23999999 0.22205772 0.00000000
0.23250000 0.23504810 0.00000000
0.06000000 0.11813466 0.00000000
0.12750000 0.20906733 0.00000000
0.22499999 0.11813466 0.00000000
0.20999999 0.11813466 0.00000000
0.06000000 0.06617314 0.00000000
0.23942751 0.06650367 0.00000000
0.23999999 0.17009619 0.00000000
0.06000000 0.19607694 0.00000000
0.06750000 0.20906733 0.00000000
0.23999999 0.11813466 0.00000000
0.08250000 0.20906733 0.00000000
0.07500000 0.22205772 0.00000000
0.06000000 0.22205772 0.00000000
0.06750000 0.23504810 0.00000000
0.13500001 0.06617314 0.00000000
0.20999999 0.17009619 0.00000000
0.16500001 0.24803847 0.00000000
0.06750000 0.05318276 0.00000000
0.23240459 0.05323785 0.00000000
0.21748410 0.05319194 0.00000000
0.14250000 0.05325331 0.00000000
0.12750000 0.05326507 0.00000000
0.24750000 0.18308657 0.00000000
0.05271601 0.07928824 0.00000000
0.24718149 0.07934741 0.00000000
0.05250000 0.05318276 0.00000000
0.24551749 0.05247691 0.00000000
0.05240349 0.23499237 0.00000000
0.24730772 0.23493709 0.00000000
0.05250000 0.18308657 0.00000000
0.05998392 0.24802919 0.00000000
0.07499732 0.24803692 0.00000000
0.12750000 0.10514428 0.00000000
0.10500000 0.17009619 0.00000000
0.09000000 0.22205772 0.00000000
0.21750000 0.15710580 0.00000000
0.20250000 0.15710580 0.00000000
0.23996796 0.24747269 0.00000000
0.22499466 0.24794418 0.00000000
0.22498144 0.04020309 0.00000000
0.04500000 0.22205772 0.00000000
0.25500000 0.22205772 0.00000000
0.25500000 0.17009619 0.00000000
0.24750000 0.15710580 0.00000000
0.04488473 0.24797192 0.00000000
0.25385526 0.24742283 0.00000000
0.06749687 0.26102704 0.00000000
0.18750000 0.10514428 0.00000000
0.12000000 0.06618686 0.00000000
0.24750000 0.10514428 0.00000000
0.25500000 0.11813466 0.00000000
0.18750000 0.18308657 0.00000000
0.04498663 0.19608466 0.00000000
0.16500001 0.11813466 0.00000000
0.09750000 0.20906733 0.00000000
0.15684009 0.05279140 0.00000000
0.05250000 0.10514428 0.00000000
0.04500000 0.11813466 0.00000000
0.05250000 0.13112505 0.00000000
0.10500000 0.22205772 0.00000000
0.09750000 0.23504810 0.00000000
0.11250000 0.05326932 0.00000000
0.23250000 0.13112505 0.00000000
0.23430820 0.26198161 0.00000000
0.21780047 0.26117194 0.00000000
0.21004918 0.24804661 0.00000000
0.20255828 0.26105407 0.00000000
0.19501790 0.24804403 0.00000000
0.18751270 0.26103398 0.00000000
0.08249903 0.26102829 0.00000000
0.20999426 0.04026625 0.00000000
0.26249999 0.18308657 0.00000000
0.13500001 0.04019238 0.00000000
0.06000000 0.04026293 0.00000000
0.04500000 0.04027469 0.00000000
0.07500000 0.04020414 0.00000000
0.03788037 0.13134466 0.00000000
0.04506340 0.14415203 0.00000000
0.02789164 0.11886661 0.00000000
0.03785223 0.18288322 0.00000000
0.04505870 0.17006230 0.00000000
0.17250000 0.23504810 0.00000000
0.25500000 0.19607694 0.00000000
0.20249639 0.05319660 0.00000000
0.19625901 0.04008012 0.00000000
0.20999999 0.14411543 0.00000000
0.19499999 0.14411543 0.00000000
0.18750000 0.15710580 0.00000000
0.07499932 0.27401885 0.00000000
0.22499999 0.27401924 0.00000000
0.26212099 0.10518529 0.00000000
0.03657496 0.05398770 0.00000000
0.26204720 0.15684438 0.00000000
0.25492454 0.14407186 0.00000000
0.03008698 0.03950273 0.00000000
0.26941371 0.14375354 0.00000000
0.06750000 0.02720200 0.00000000
0.21750000 0.02720200 0.00000000
0.03771010 0.02599954 0.00000000
0.23221467 0.02778907 0.00000000
0.08179190 0.02988234 0.00000000
0.08929190 0.04098175 0.00000000
0.27204138 0.11873580 0.00000000
0.02786473 0.19564396 0.00000000
0.26900044 0.19583493 0.00000000
0.27648404 0.18372467 0.00000000
0.03181258 0.16875994 0.00000000
0.03093046 0.14395648 0.00000000
0.05999937 0.27401888 0.00000000
0.11250000 0.28700963 0.00000000
0.10500000 0.27401924 0.00000000
0.11250000 0.26102886 0.00000000
0.01346737 0.12699430 0.00000000
0.01299038 0.11250000 0.00000000
0.17250000 0.01299038 0.00000000
0.16559008 0.02564008 0.00000000
0.17885892 0.02613362 0.00000000
0.17250000 0.03897114 0.00000000
0.15000001 0.02598076 0.00000000
0.18671973 0.01267517 0.00000000
0.01214153 0.15860577 0.00000000
0.28510806 0.14293307 0.00000000
0.14250000 0.01290807 0.00000000
0.15750000 0.28700963 0.00000000
0.16500001 0.27401924 0.00000000
0.20251118 0.23505038 0.00000000
0.03759669 0.28706545 0.00000000
0.03011280 0.27408436 0.00000000
0.01381740 0.27556816 0.00000000
0.02250000 0.26102886 0.00000000
0.03749959 0.26102862 0.00000000
0.02950661 0.24786109 0.00000000
0.02198103 0.23366204 0.00000000
0.03692095 0.23471378 0.00000000
0.02963608 0.22129013 0.00000000
0.03736240 0.20895189 0.00000000
0.28706545 0.26240331 0.00000000
0.27408436 0.26988721 0.00000000
0.27556816 0.28618261 0.00000000
0.26154196 0.27737558 0.00000000
0.26071715 0.26070440 0.00000000
0.24816045 0.26990473 0.00000000
0.27481276 0.25466582 0.00000000
0.27502972 0.24025798 0.00000000
0.04503474 0.27403930 0.00000000
0.01483295 0.03834867 0.00000000
0.26249999 0.01299038 0.00000000
0.26990330 0.02592494 0.00000000
0.28618491 0.02443318 0.00000000
0.27750000 0.03897114 0.00000000
0.26249999 0.03897114 0.00000000
0.27105501 0.05179306 0.00000000
0.27809319 0.06629836 0.00000000
0.26485565 0.06591555 0.00000000
0.27118084 0.07796667 0.00000000
0.25533459 0.02577969 0.00000000
0.28717804 0.23254299 0.00000000
0.27199262 0.22368686 0.00000000
0.01293809 0.08250000 0.00000000
0.02814137 0.09103000 0.00000000
0.02541657 0.07489588 0.00000000
0.28700963 0.21750000 0.00000000
0.06001057 0.14412153 0.00000000
0.08238199 0.05331628 0.00000000
0.01286224 0.06763701 0.00000000
0.15000001 0.27401924 0.00000000
0.18750000 0.28700963 0.00000000
0.01289221 0.18797186 0.00000000
0.09750000 0.10514428 0.00000000
0.10500000 0.09215390 0.00000000
0.09750000 0.07916352 0.00000000
0.11257856 0.01297958 0.00000000
0.12000000 0.02598076 0.00000000
0.28700963 0.11250000 0.00000000
0.09736232 0.05335100 0.00000000
0.10500000 0.04019238 0.00000000
0.06750176 0.13112606 0.00000000
0.11250000 0.15710580 0.00000000
0.12000000 0.17009619 0.00000000
0.11250000 0.18308657 0.00000000
0.12750000 0.18308657 0.00000000
0.25421542 0.09257723 0.00000000
0.20250000 0.10514428 0.00000000
0.19499999 0.11813466 0.00000000
0.18000001 0.11813466 0.00000000
0.18000510 0.24804026 0.00000000
0.13500001 0.09215390 0.00000000
0.12750000 0.15710580 0.00000000
0.19499999 0.17009619 0.00000000
0.07500205 0.14411661 0.00000000
0.10500000 0.11813466 0.00000000
0.06000978 0.17009054 0.00000000
0.23250000 0.15710580 0.00000000
0.16500001 0.22205772 0.00000000
0.21750000 0.23504810 0.00000000
0.18000001 0.22205772 0.00000000
0.17250000 0.18308657 0.00000000
0.23981616 0.09225511 0.00000000
0.28509262 0.08099482 0.00000000
0.09750000 0.18308657 0.00000000
0.01408327 0.21921711 0.00000000
0.03750000 0.10514428 0.00000000
0.12750000 0.23504810 0.00000000
0.15750000 0.13112505 0.00000000
0.18750569 0.23504969 0.00000000
0.21000187 0.22205809 0.00000000
0.12750000 0.07916581 0.00000000
0.20250000 0.18308657 0.00000000
0.05247484 0.20904937 0.00000000
0.09000000 0.19607694 0.00000000
0.16489002 0.06619023 0.00000000
0.12000000 0.09215429 0.00000000
0.08249956 0.23504783 0.00000000
0.10500000 0.19607694 0.00000000
0.21750000 0.13112505 0.00000000
0.12000000 0.11813466 0.00000000
0.11250000 0.20906733 0.00000000
0.18000001 0.17009619 0.00000000
0.17250000 0.10514428 0.00000000
0.17250000 0.15710580 0.00000000
0.13500001 0.17009619 0.00000000
0.08999932 0.24803808 0.00000000
0.03843032 0.15659563 0.00000000
0.05267879 0.15702131 0.00000000
0.12000000 0.19607694 0.00000000
0.13500001 0.19607694 0.00000000
0.23999999 0.19607694 0.00000000
0.26967216 0.17023787 0.00000000
0.18000001 0.14411543 0.00000000
0.06003600 0.09217469 0.00000000
0.04578409 0.06669535 0.00000000
0.20999674 0.06617698 0.00000000
0.15750000 0.26102886 0.00000000
0.23830435 0.03908290 0.00000000
0.05248320 0.26101917 0.00000000
0.12000000 0.22205772 0.00000000
0.11250000 0.10514434 0.00000000
0.04500000 0.09215390 0.00000000
0.11250000 0.23504810 0.00000000
0.17250000 0.13112505 0.00000000
0.11250000 0.07916626 0.00000000
0.24750000 0.20906733 0.00000000
0.19499886 0.06618784 0.00000000
0.10500000 0.06617314 0.00000000
0.18830970 0.05359790 0.00000000
0.26239628 0.20945397 0.00000000
0.18000212 0.27402011 0.00000000
0.17250332 0.26103014 0.00000000
0.22499999 0.14411543 0.00000000
0.18750000 0.13112505 0.00000000
0.19501218 0.27402443 0.00000000
0.23998742 0.14410816 0.00000000
0.24748532 0.13111657 0.00000000
0.26249999 0.13112505 0.00000000
0.20250000 0.13112505 0.00000000
0.10499988 0.24803841 0.00000000
0.23211470 0.28707027 0.00000000
0.21006182 0.27404815 0.00000000
0.21744609 0.28702456 0.00000000
0.09749971 0.26102868 0.00000000
0.06750000 0.28700963 0.00000000
0.08999968 0.27401906 0.00000000
0.08249983 0.28700951 0.00000000
0.28668642 0.17182930 0.00000000
0.13500001 0.02359636 0.00000000
0.12000000 0.04257998 0.00000000
0.14975950 0.04093152 0.00000000
0.23236685 0.01316435 0.00000000
0.21749307 0.01207360 0.00000000
0.17245489 0.05099922 0.00000000
0.20287994 0.02808806 0.00000000
0.10524458 0.02524534 0.00000000
0.08198733 0.01604157 0.00000000
0.06746263 0.01208592 0.00000000
0.05251094 0.02807320 0.00000000
0.03768807 0.01031032 0.00000000
0.26999810 0.09200903 0.00000000
0.02384812 0.01360545 0.00000000
0.02423785 0.06120283 0.00000000
0.26152769 0.23597708 0.00000000
0.03860549 0.07898574 0.00000000
0.27664393 0.20707500 0.00000000
0.02391374 0.10500585 0.00000000
0.27560177 0.10521693 0.00000000
0.02423914 0.20955533 0.00000000
0.02384012 0.02798639 0.00000000
0.02381903 0.17886664 0.00000000
0.28956714 0.18750000 0.00000000
0.02506196 0.13286370 0.00000000
0.27512053 0.13266207 0.00000000
0.26249999 0.28995189 0.00000000
0.01001712 0.26233003 0.00000000
0.28998300 0.03767005 0.00000000
0.02521679 0.15553726 0.00000000
0.27478319 0.15553726 0.00000000
0.00987849 0.23310344 0.00000000
0.29021156 0.06750000 0.00000000
0.23715626 0.27566108 0.00000000
0.24740180 0.25749725 0.00000000
0.25933966 0.08063029 0.00000000
0.25180519 0.06754099 0.00000000
0.28901923 0.28901923 0.00000000
0.01098076 0.28901923 0.00000000
0.01098076 0.01098076 0.00000000
0.28901923 0.01098076 0.00000000
0.19163506 0.02552003 0.00000000
0.09376551 0.02841789 0.00000000
0.16114783 0.03856417 0.00000000
0.18341273 0.04009018 0.00000000
0.25803414 0.05158357 0.00000000
0.25082085 0.03777917 0.00000000
0.24360391 0.02390004 0.00000000
0.02389115 0.04965750 0.00000000
0.26541486 0.24771830 0.00000000
0.03412379 0.06715350 0.00000000
0.28035802 0.19450399 0.00000000
0.02080023 0.16603445 0.00000000
3 460 424 491
3 395 85 473
3 354 238 442
3 82 460 491
3 296 294 464
3 464 294 465
3 469 293 470
3 297 293 469
3 398 356 434
3 269 369 461
3 369 269 462
3 293 99 470
3 99 293 471
3 90 294 467
3 294 90 465
3 315 269 461
3 269 315 463
3 372 369 462
3 369 372 468
3 295 99 471
3 99 295 472
3 351 395 473
3 466 252 504
3 469 84 503
3 314 466 504
3 297 469 503
3 275 309 310
3 102 299 370
3 474 295 482
3 472 295 474
3 300 86 364
3 351 349 395
3 331 329 397
3 313 502 505
3 502 281 505
3 354 442 478
3 350 497 506
3 497 223 506
3 434 356 477
3 238 354 476
3 397 329 492
3 395 349 493
3 309 275 485
3 299 102 486
3 42 43 335
3 61 62 325
3 23 24 345
3 356 398 479
3 300 364 483
3 326 97 328
3 336 96 338
3 346 98 348
3 80 304 490
3 292 318 491
3 23 345 501
3 61 325 499
3 42 335 498
3 328 97 329
3 348 98 349
3 473 85 480
3 86 300 481
3 302 424 460
3 338 260 495
3 260 338 494
3 275 310 479
3 370 299 480
3 318 82 491
3 317 80 490
3 342 291 509
3 304 80 485
3 318 292 486
3 224 241 330
3 291 342 482
3 348 349 350
3 338 96 494
3 237 330 331
3 237 331 332
3 241 328 330
3 237 224 330
3 328 329 330
3 356 357 477
3 350 349 351
3 332 249 405
3 96 336 487
3 97 326 488
3 98 346 489
3 483 101 513
3 237 332 405
3 300 249 332
3 330 329 331
3 241 327 328
3 327 241 431
3 341 327 431
3 57 92 457
3 305 341 431
3 305 92 341
3 92 305 457
3 110 306 307
3 110 307 308
3 73 88 310
3 108 53 306
3 110 108 306
3 311 15 316
3 313 311 316
3 174 111 308
3 111 110 308
3 353 354 358
3 56 57 457
3 193 371 440
3 200 411 451
3 32 33 82
3 51 52 83
3 13 14 81
3 70 71 80
3 37 353 358
3 258 371 372
3 32 82 318
3 70 80 317
3 13 81 319
3 51 83 320
3 112 114 429
3 175 322 401
3 392 175 401
3 102 31 318
3 103 12 319
3 101 69 317
3 100 50 320
3 334 337 339
3 333 334 339
3 344 347 352
3 343 344 352
3 323 324 341
3 324 327 341
3 93 333 339
3 357 355 361
3 93 39 333
3 92 58 323
3 69 70 317
3 12 13 319
3 31 32 318
3 83 108 109
3 50 51 320
3 92 323 341
3 72 73 310
3 95 343 352
3 94 77 342
3 95 20 343
3 153 155 402
3 355 75 361
3 321 320 362
3 371 258 440
3 306 89 307
3 309 72 310
3 381 250 415
3 334 105 335
3 54 89 306
3 324 104 325
3 186 359 386
3 81 315 319
3 362 112 429
3 334 335 336
3 324 325 326
3 37 38 353
3 344 107 345
3 73 74 88
3 54 55 89
3 16 17 90
3 35 36 91
3 83 109 362
3 333 105 334
3 59 60 104
3 40 41 105
3 278 392 401
3 213 278 382
3 83 52 108
3 343 107 344
3 100 320 321
3 323 104 324
3 304 274 419
3 344 345 346
3 78 79 106
3 21 22 107
3 16 90 316
3 59 104 323
3 40 105 333
3 88 355 356
3 88 74 355
3 322 175 402
3 81 311 312
3 382 278 401
3 359 373 386
3 91 36 358
3 76 94 361
3 78 106 342
3 21 107 343
3 321 362 429
3 109 112 362
3 175 153 402
3 39 40 333
3 58 59 323
3 244 380 381
3 429 213 444
3 77 78 342
3 20 21 343
3 53 54 306
3 193 360 371
3 327 326 328
3 272 298 360
3 214 272 360
3 377 375 417
3 411 282 451
3 52 53 108
3 81 312 315
3 155 177 402
3 93 339 340
3 445 259 448
3 274 359 420
3 114 213 429
3 337 336 338
3 365 366 433
3 170 173 379
3 147 140 373
3 347 346 348
3 244 381 415
3 244 379 380
3 81 14 311
3 80 71 309
3 75 76 361
3 320 83 362
3 173 200 379
3 177 196 391
3 178 221 394
3 15 16 316
3 124 377 417
3 373 140 386
3 160 162 415
3 419 274 420
3 190 193 367
3 134 130 384
3 360 298 371
3 48 49 363
3 67 68 364
3 196 234 235
3 214 270 272
3 356 355 357
3 74 75 355
3 221 378 394
3 248 385 404
3 272 293 297
3 109 110 111
3 235 234 260
3 168 170 379
3 57 58 92
3 197 147 373
3 38 39 93
3 36 37 358
3 272 270 293
3 359 186 420
3 76 77 94
3 19 20 95
3 192 214 360
3 334 336 337
3 209 224 237
3 385 212 404
3 254 197 255
3 254 255 273
3 273 255 274
3 273 274 304
3 209 237 405
3 170 171 172
3 130 128 384
3 235 260 261
3 250 160 415
3 109 111 112
3 365 189 366
3 178 202 221
3 109 108 110
3 55 56 459
3 166 168 244
3 189 190 367
3 261 260 286
3 230 142 374
3 344 346 347
3 371 298 372
3 148 189 365
3 324 326 327
3 250 381 436
3 163 161 164
3 170 172 173
3 374 134 384
3 196 225 234
3 38 93 353
3 10 11 368
3 409 257 418
3 413 410 421
3 230 374 375
3 379 200 380
3 161 159 383
3 284 414 416
3 159 229 383
3 231 207 251
3 29 30 370
3 367 193 440
3 247 287 299
3 14 15 311
3 87 48 363
3 71 72 309
3 168 169 170
3 142 137 374
3 198 421 422
3 86 67 364
3 262 261 263
3 138 141 387
3 247 246 287
3 231 251 256
3 375 384 417
3 148 188 189
3 173 172 183
3 239 203 240
3 190 192 193
3 214 222 270
3 141 148 365
3 284 385 414
3 139 137 142
3 289 290 292
3 172 178 394
3 244 168 379
3 274 255 359
3 272 297 298
3 206 246 247
3 189 188 190
3 137 134 374
3 235 261 262
3 163 164 194
3 164 161 383
3 199 183 206
3 239 240 289
3 278 390 392
3 172 171 178
3 143 144 145
3 193 192 360
3 206 183 246
3 177 195 196
3 217 218 269
3 162 166 415
3 184 226 388
3 253 197 254
3 276 249 300
3 141 365 387
3 366 189 367
3 68 101 364
3 49 100 363
3 143 142 144
3 184 204 226
3 11 103 368
3 289 240 290
3 246 183 394
3 375 374 384
3 184 185 204
3 283 233 284
3 154 152 404
3 271 291 295
3 177 391 402
3 366 408 433
3 233 212 385
3 135 138 387
3 166 167 168
3 30 102 370
3 139 142 143
3 251 207 406
3 186 145 388
3 170 169 171
3 173 183 199
3 230 375 376
3 267 216 280
3 226 277 388
3 144 142 230
3 181 182 203
3 312 313 314
3 232 212 233
3 145 184 388
3 226 249 276
3 353 340 354
3 143 145 186
3 213 382 444
3 282 233 283
3 144 230 396
3 194 164 211
3 192 201 214
3 117 115 118
3 149 150 151
3 376 375 377
3 115 113 399
3 368 103 369
3 182 157 212
3 226 204 249
3 262 263 264
3 264 263 265
3 173 199 200
3 378 246 394
3 421 377 422
3 284 233 385
3 120 149 390
3 113 174 399
3 149 122 150
3 181 157 182
3 151 150 152
3 377 124 422
3 322 264 401
3 230 376 396
3 151 175 392
3 183 172 394
3 199 206 259
3 120 122 149
3 123 125 126
3 120 119 121
3 152 248 404
3 126 125 127
3 158 250 400
3 127 129 131
3 182 212 232
3 278 116 390
3 127 128 129
3 150 122 393
3 112 111 113
3 123 124 125
3 122 121 123
3 120 121 122
3 145 146 184
3 240 203 389
3 138 137 139
3 267 280 281
3 194 211 217
3 385 248 414
3 277 276 303
3 123 121 124
3 127 125 128
3 232 233 282
3 203 182 389
3 117 119 120
3 217 211 218
3 117 118 119
3 416 131 425
3 113 111 174
3 184 146 185
3 119 118 198
3 213 116 278
3 287 246 378
3 148 187 188
3 390 149 392
3 145 144 146
3 182 232 389
3 264 382 401
3 117 120 390
3 196 235 391
3 231 256 257
3 226 276 277
3 118 115 399
3 135 134 137
3 262 322 391
3 149 151 392
3 28 29 85
3 47 48 87
3 66 67 86
3 122 123 393
3 9 10 84
3 123 126 393
3 248 150 393
3 132 136 158
3 156 154 157
3 255 197 373
3 141 147 148
3 262 264 322
3 403 383 408
3 158 136 159
3 218 245 258
3 159 136 229
3 414 126 416
3 251 406 410
3 143 186 386
3 116 117 390
3 186 388 420
3 132 133 136
3 156 157 181
3 208 207 231
3 164 383 403
3 209 210 224
3 114 113 115
3 187 147 197
3 241 227 431
3 383 229 408
3 264 265 382
3 152 150 248
3 190 191 192
3 85 29 370
3 219 203 239
3 116 115 117
3 84 10 368
3 212 157 404
3 211 164 403
3 160 159 161
3 162 161 163
3 146 144 396
3 114 116 213
3 224 227 241
3 292 290 450
3 131 129 400
3 384 128 417
3 290 449 450
3 235 262 391
3 151 153 175
3 139 143 386
3 133 130 134
3 389 445 448
3 65 66 397
3 129 130 132
3 49 50 100
3 251 410 413
3 11 12 103
3 30 31 102
3 68 69 101
3 218 211 245
3 129 132 400
3 157 154 404
3 112 113 114
3 187 197 253
3 66 86 397
3 205 208 209
3 168 167 169
3 284 416 425
3 132 158 400
3 448 259 449
3 359 255 373
3 129 128 130
3 153 152 154
3 128 125 417
3 158 160 250
3 249 204 405
3 199 259 411
3 248 393 414
3 124 121 422
3 27 28 395
3 223 215 430
3 28 85 395
3 126 127 416
3 228 409 418
3 114 115 116
3 155 176 177
3 380 200 451
3 136 133 412
3 166 165 167
3 138 140 141
3 396 376 410
3 245 211 403
3 119 198 422
3 178 179 202
3 198 413 421
3 194 217 252
3 190 188 191
3 200 199 411
3 141 140 147
3 133 134 135
3 140 139 386
3 135 387 412
3 151 152 153
3 256 251 413
3 207 185 406
3 148 147 187
3 158 159 160
3 132 130 133
3 229 136 412
3 135 137 138
3 391 322 402
3 234 225 242
3 202 215 223
3 204 185 205
3 366 367 437
3 214 201 222
3 185 146 406
3 162 165 166
3 155 154 156
3 196 195 225
3 254 273 275
3 406 396 410
3 138 139 140
3 146 396 406
3 133 135 412
3 181 203 219
3 393 126 414
3 387 365 433
3 166 244 415
3 127 131 416
3 205 185 207
3 205 209 405
3 277 303 419
3 253 254 398
3 125 124 417
3 388 277 420
3 156 181 423
3 411 259 445
3 93 340 353
3 270 222 271
3 280 216 428
3 376 377 421
3 208 231 409
3 236 216 267
3 410 376 421
3 403 408 437
3 121 119 422
3 177 176 195
3 160 161 162
3 167 165 180
3 198 118 432
3 153 154 155
3 283 284 425
3 192 191 201
3 439 180 441
3 243 228 266
3 180 165 407
3 204 205 405
3 25 26 98
3 6 7 99
3 209 208 210
3 178 171 179
3 163 194 407
3 312 311 313
3 219 239 268
3 381 380 446
3 205 207 208
3 162 163 165
3 215 236 430
3 236 294 296
3 231 257 409
3 228 210 409
3 188 187 426
3 210 208 409
3 236 267 294
3 191 188 426
3 181 219 423
3 201 191 220
3 257 256 435
3 254 275 398
3 224 210 227
3 447 263 454
3 227 243 431
3 277 419 420
3 413 198 432
3 266 228 418
3 215 179 216
3 219 268 279
3 155 156 176
3 239 289 424
3 202 179 215
3 437 367 440
3 243 285 305
3 256 413 432
3 227 210 228
3 215 216 236
3 225 195 238
3 194 252 407
3 171 169 428
3 256 432 435
3 165 163 407
3 229 412 433
3 227 228 243
3 187 253 426
3 118 399 432
3 131 400 436
3 220 191 426
3 279 268 301
3 408 366 437
3 176 156 423
3 219 279 423
3 271 288 291
3 425 131 436
3 408 229 433
3 44 45 96
3 243 266 285
3 63 64 97
3 432 399 435
3 268 239 424
3 271 222 288
3 179 171 428
3 399 174 435
3 412 387 433
3 446 380 451
3 426 253 434
3 236 296 430
3 280 439 441
3 216 179 428
3 400 250 436
3 167 180 439
3 280 428 439
3 243 305 431
3 301 268 302
3 222 201 427
3 201 220 427
3 176 423 438
3 245 403 437
3 238 195 438
3 302 268 424
3 253 398 434
3 428 169 439
3 220 426 434
3 169 167 439
3 258 245 440
3 423 279 438
3 288 222 427
3 245 437 440
3 195 176 438
3 281 280 441
3 232 282 445
3 321 429 444
3 259 206 449
3 282 411 445
3 443 265 447
3 100 321 443
3 240 389 448
3 174 308 452
3 290 448 449
3 238 438 442
3 418 257 452
3 265 263 447
3 263 261 454
3 443 321 444
3 438 279 442
3 279 301 442
3 96 45 453
3 436 381 446
3 425 436 446
3 363 100 443
3 87 447 454
3 47 87 455
3 265 443 444
3 87 454 455
3 363 443 447
3 382 265 444
3 45 46 453
3 87 363 447
3 389 232 445
3 206 247 449
3 290 240 448
3 449 247 450
3 247 299 450
3 283 446 451
3 283 425 446
3 282 283 451
3 435 174 452
3 257 435 452
3 261 286 454
3 453 46 455
3 418 452 456
3 286 453 455
3 266 456 458
3 46 47 455
3 454 286 455
3 452 308 456
3 266 418 456
3 456 307 458
3 308 307 456
3 56 457 459
3 307 89 458
3 89 55 459
3 305 285 457
3 458 89 459
3 285 266 458
3 285 458 459
3 457 285 459
3 331 397 481
3 478 301 512
3 303 483 513
3 354 340 476
3 33 34 460
3 258 372 462
3 319 315 461
3 90 17 465
3 19 95 464
3 269 218 462
3 217 269 463
3 369 103 461
3 294 267 467
3 407 252 466
3 368 369 468
3 441 180 466
3 9 84 469
3 293 270 471
3 99 7 470
3 271 295 471
3 6 99 472
3 507 430 508
3 506 223 507
3 223 430 507
3 430 296 508
3 314 313 505
3 4 5 474
3 82 33 460
3 103 319 461
3 218 258 462
3 18 19 464
3 252 217 463
3 18 464 465
3 180 407 466
3 17 18 465
3 267 281 467
3 84 368 468
3 8 9 469
3 8 469 470
3 7 8 470
3 270 271 471
3 5 6 472
3 361 94 475
3 252 463 504
3 84 468 503
3 467 281 502
3 91 478 512
3 242 225 476
3 350 351 496
3 427 220 477
3 350 496 497
3 94 342 509
3 348 350 506
3 460 34 484
3 329 97 492
3 349 98 493
3 358 354 478
3 442 301 478
3 287 378 473
3 88 356 479
3 80 309 485
3 102 318 486
3 106 474 482
3 337 242 510
3 357 361 475
3 276 300 483
3 302 460 484
3 35 91 484
3 441 466 505
3 464 95 508
3 275 273 485
3 450 299 486
3 44 96 487
3 63 97 488
3 25 98 489
3 5 472 474
3 419 303 490
3 424 289 491
3 65 397 492
3 27 395 493
3 98 26 493
3 97 64 492
3 260 234 495
3 96 453 494
3 286 260 494
3 364 101 483
3 300 332 481
3 296 464 508
3 466 314 505
3 202 223 497
3 79 0 500
3 22 1 501
3 0 4 500
3 1 23 501
3 3 61 499
3 2 42 498
3 60 3 499
3 41 2 498
3 325 104 499
3 335 105 498
3 345 107 501
3 316 90 502
3 372 298 503
3 315 312 504
3 342 106 482
3 299 287 480
3 398 275 479
3 339 337 510
3 242 337 495
3 225 238 476
3 90 467 502
3 463 315 504
3 468 372 503
3 220 434 477
3 397 86 481
3 351 473 496
3 473 378 496
3 91 358 478
3 310 88 479
3 85 370 480
3 337 338 495
3 287 473 480
3 332 331 481
3 288 427 511
3 335 43 487
3 325 62 488
3 345 24 489
3 295 291 482
3 303 276 483
3 34 35 484
3 291 288 509
3 273 304 485
3 292 450 486
3 242 476 510
3 475 288 511
3 62 63 488
3 43 44 487
3 24 25 489
3 336 335 487
3 326 325 488
3 346 345 489
3 304 419 490
3 289 292 491
3 64 65 492
3 26 27 493
3 453 286 494
3 234 242 495
3 427 477 511
3 288 475 509
3 4 474 500
3 490 303 513
3 378 221 496
3 496 221 497
3 221 202 497
3 105 41 498
3 104 60 499
3 107 22 501
3 106 79 500
3 313 316 502
3 312 314 504
3 298 297 503
3 484 91 512
3 281 441 505
3 352 507 508
3 352 347 507
3 347 348 506
3 347 506 507
3 95 352 508
3 476 340 510
3 475 94 509
3 340 339 510
3 301 302 512
3 101 317 513
3 474 106 500
3 477 357 511
3 357 475 511
3 302 484 512
3 317 490 513