ply
format ascii 1.0
comment https://github.com/mikedh/trimesh
element vertex 790
property float x
property float y
property float z
element face 1478
property list uchar int vertex_indices
end_header
0.00000000 0.00000000 0.00000000
0.30000001 0.00000000 0.00000000
0.30000001 0.30000001 0.00000000
0.00000000 0.30000001 0.00000000
0.01200000 0.00000000 0.00000000
0.02400000 0.00000000 0.00000000
0.03600000 0.00000000 0.00000000
0.04800000 0.00000000 0.00000000
0.06000000 0.00000000 0.00000000
0.07200000 0.00000000 0.00000000
0.08400000 0.00000000 0.00000000
0.09600000 0.00000000 0.00000000
0.10800000 0.00000000 0.00000000
0.12000000 0.00000000 0.00000000
0.13200000 0.00000000 0.00000000
0.14399999 0.00000000 0.00000000
0.15600000 0.00000000 0.00000000
0.16800000 0.00000000 0.00000000
0.18000001 0.00000000 0.00000000
0.19200000 0.00000000 0.00000000
0.20400000 0.00000000 0.00000000
0.21600001 0.00000000 0.00000000
0.22800000 0.00000000 0.00000000
0.23999999 0.00000000 0.00000000
0.25200000 0.00000000 0.00000000
0.26400000 0.00000000 0.00000000
0.27599999 0.00000000 0.00000000
0.28799999 0.00000000 0.00000000
0.30000001 0.01200000 0.00000000
0.30000001 0.02400000 0.00000000
0.30000001 0.03600000 0.00000000
0.30000001 0.04800000 0.00000000
0.30000001 0.06000000 0.00000000
0.30000001 0.07200000 0.00000000
0.30000001 0.08400000 0.00000000
0.30000001 0.09600000 0.00000000
0.30000001 0.10800000 0.00000000
0.30000001 0.12000000 0.00000000
0.30000001 0.13200000 0.00000000
0.30000001 0.14399999 0.00000000
0.30000001 0.15600000 0.00000000
0.30000001 0.16800000 0.00000000
0.30000001 0.18000001 0.00000000
0.30000001 0.19200000 0.00000000
0.30000001 0.20400000 0.00000000
0.30000001 0.21600001 0.00000000
0.30000001 0.22800000 0.00000000
0.30000001 0.23999999 0.00000000
0.30000001 0.25200000 0.00000000
0.30000001 0.26400000 0.00000000
0.30000001 0.27599999 0.00000000
0.30000001 0.28799999 0.00000000
0.28799999 0.30000001 0.00000000
0.27599999 0.30000001 0.00000000
0.26400000 0.30000001 0.00000000
0.25200000 0.30000001 0.00000000
0.23999999 0.30000001 0.00000000
0.22800000 0.30000001 0.00000000
0.21600001 0.30000001 0.00000000
0.20400000 0.30000001 0.00000000
0.19200000 0.30000001 0.00000000
0.18000001 0.30000001 0.00000000
0.16800000 0.30000001 0.00000000
0.15600000 0.30000001 0.00000000
0.14399999 0.30000001 0.00000000
0.13200000 0.30000001 0.00000000
0.12000000 0.30000001 0.00000000
0.10800000 0.30000001 0.00000000
0.09600000 0.30000001 0.00000000
0.08400000 0.30000001 0.00000000
0.07200000 0.30000001 0.00000000
0.06000000 0.30000001 0.00000000
0.04800000 0.30000001 0.00000000
0.03600000 0.30000001 0.00000000
0.02400000 0.30000001 0.00000000
0.01200000 0.30000001 0.00000000
0.00000000 0.28799999 0.00000000
0.00000000 0.27599999 0.00000000
0.00000000 0.26400000 0.00000000
0.00000000 0.25200000 0.00000000
0.00000000 0.23999999 0.00000000
0.00000000 0.22800000 0.00000000
0.00000000 0.21600001 0.00000000
0.00000000 0.20400000 0.00000000
0.00000000 0.19200000 0.00000000
0.00000000 0.18000001 0.00000000
0.00000000 0.16800000 0.00000000
0.00000000 0.15600000 0.00000000
0.00000000 0.14399999 0.00000000
0.00000000 0.13200000 0.00000000
0.00000000 0.12000000 0.00000000
0.00000000 0.10800000 0.00000000
0.00000000 0.09600000 0.00000000
0.00000000 0.08400000 0.00000000
0.00000000 0.07200000 0.00000000
0.00000000 0.06000000 0.00000000
0.00000000 0.04800000 0.00000000
0.00000000 0.03600000 0.00000000
0.00000000 0.02400000 0.00000000
0.00000000 0.01200000 0.00000000
0.28960770 0.15000001 0.00000000
0.01039230 0.15000001 0.00000000
0.15000001 0.01039230 0.00000000
0.15051726 0.28922009 0.00000000
0.01039230 0.10200000 0.00000000
0.19862804 0.00953221 0.00000000
0.10173719 0.29050288 0.00000000
0.28849298 0.19929765 0.00000000
0.10296449 0.01144235 0.00000000
0.28960770 0.10200000 0.00000000
0.01039230 0.19800000 0.00000000
0.19862804 0.29046780 0.00000000
0.06600000 0.28960770 0.00000000
0.01039230 0.06600000 0.00000000
0.28849298 0.23270236 0.00000000
0.23360744 0.00930996 0.00000000
0.28960770 0.06600000 0.00000000
0.06433076 0.01129332 0.00000000
0.01123517 0.23527943 0.00000000
0.23379810 0.29106244 0.00000000
0.04200000 0.28960770 0.00000000
0.28849298 0.25929764 0.00000000
0.01039230 0.04200000 0.00000000
0.25799999 0.01039230 0.00000000
0.12547481 0.28788802 0.00000000
0.01039230 0.12600000 0.00000000
0.28960770 0.17399999 0.00000000
0.17366616 0.01019957 0.00000000
0.01066252 0.25811043 0.00000000
0.25706351 0.28920156 0.00000000
0.04186813 0.01066383 0.00000000
0.28960770 0.04200000 0.00000000
0.01039230 0.17399999 0.00000000
0.12529555 0.01146012 0.00000000
0.17357351 0.29055810 0.00000000
0.28960770 0.12600000 0.00000000
0.28912881 0.28074285 0.00000000
0.01846410 0.28987566 0.00000000
0.28153589 0.01012436 0.00000000
0.01012436 0.01846410 0.00000000
0.01039230 0.13800000 0.00000000
0.02078461 0.14399999 0.00000000
0.02078461 0.15600000 0.00000000
0.03117692 0.15000001 0.00000000
0.03117692 0.13800000 0.00000000
0.04156922 0.14399999 0.00000000
0.04156922 0.13200000 0.00000000
0.05196152 0.13800000 0.00000000
0.05196152 0.15000001 0.00000000
0.06235383 0.14399999 0.00000000
0.06235383 0.15600000 0.00000000
0.07274614 0.15000001 0.00000000
0.07274614 0.13800000 0.00000000
0.08313844 0.14399999 0.00000000
0.08313844 0.15600000 0.00000000
0.09353074 0.15000001 0.00000000
0.09353074 0.13800000 0.00000000
0.10392305 0.14399999 0.00000000
0.10392305 0.15600000 0.00000000
0.11431535 0.15000001 0.00000000
0.11431535 0.13800000 0.00000000
0.12470766 0.14399999 0.00000000
0.12470766 0.15600000 0.00000000
0.13509996 0.15000001 0.00000000
0.13509996 0.13800000 0.00000000
0.14549227 0.14399999 0.00000000
0.14549227 0.15600000 0.00000000
0.15588458 0.15000001 0.00000000
0.15588458 0.13800000 0.00000000
0.15588458 0.16200000 0.00000000
0.16627687 0.15600000 0.00000000
0.16627687 0.16800000 0.00000000
0.15588458 0.17399999 0.00000000
0.16627687 0.18000001 0.00000000
0.17666918 0.16200000 0.00000000
0.15588458 0.18600000 0.00000000
0.16627687 0.19200000 0.00000000
0.15588458 0.19800000 0.00000000
0.16627687 0.20400000 0.00000000
0.17666918 0.19800000 0.00000000
0.15588458 0.20999999 0.00000000
0.14549227 0.20400000 0.00000000
0.17666918 0.20999999 0.00000000
0.18706149 0.20400000 0.00000000
0.18706149 0.21600001 0.00000000
0.19745380 0.20999999 0.00000000
0.14549227 0.21600001 0.00000000
0.13509996 0.20999999 0.00000000
0.19745380 0.22200000 0.00000000
0.20784609 0.21600001 0.00000000
0.20784609 0.20400000 0.00000000
0.21823840 0.20999999 0.00000000
0.21823840 0.19800000 0.00000000
0.13509996 0.22200000 0.00000000
0.12470766 0.21600001 0.00000000
0.21823840 0.22200000 0.00000000
0.14549227 0.22800000 0.00000000
0.12470766 0.22800000 0.00000000
0.11431535 0.22200000 0.00000000
0.22863071 0.21600001 0.00000000
0.22863071 0.22800000 0.00000000
0.18706149 0.22800000 0.00000000
0.11431535 0.23400000 0.00000000
0.10392305 0.22800000 0.00000000
0.10392305 0.21600001 0.00000000
0.09353074 0.22200000 0.00000000
0.09353074 0.23400000 0.00000000
0.08313844 0.22800000 0.00000000
0.08313844 0.21600001 0.00000000
0.07274614 0.22200000 0.00000000
0.07274614 0.23400000 0.00000000
0.07274614 0.20999999 0.00000000
0.06235383 0.21600001 0.00000000
0.23902301 0.22200000 0.00000000
0.23902301 0.23400000 0.00000000
0.22863071 0.23999999 0.00000000
0.06235383 0.20400000 0.00000000
0.08313844 0.20400000 0.00000000
0.05196152 0.12600000 0.00000000
0.17666918 0.15000001 0.00000000
0.18706149 0.15600000 0.00000000
0.18706149 0.14399999 0.00000000
0.19745380 0.15000001 0.00000000
0.19745380 0.13800000 0.00000000
0.20784609 0.14399999 0.00000000
0.20784609 0.13200000 0.00000000
0.19745380 0.12600000 0.00000000
0.20784609 0.12000000 0.00000000
0.19745380 0.11400000 0.00000000
0.20784609 0.10800000 0.00000000
0.19745380 0.10200000 0.00000000
0.20784609 0.09600000 0.00000000
0.19745380 0.09000000 0.00000000
0.20784609 0.08400000 0.00000000
0.18706149 0.09600000 0.00000000
0.18706149 0.08400000 0.00000000
0.17666918 0.09000000 0.00000000
0.17666918 0.07800000 0.00000000
0.16627687 0.08400000 0.00000000
0.21823840 0.13800000 0.00000000
0.21823840 0.09000000 0.00000000
0.21823840 0.07800000 0.00000000
0.22863071 0.08400000 0.00000000
0.22863071 0.07200000 0.00000000
0.16627687 0.07200000 0.00000000
0.15588458 0.07800000 0.00000000
0.17666918 0.06600000 0.00000000
0.21823840 0.06600000 0.00000000
0.15588458 0.06600000 0.00000000
0.14549227 0.07200000 0.00000000
0.14549227 0.08400000 0.00000000
0.13509996 0.07800000 0.00000000
0.13509996 0.06600000 0.00000000
0.12470766 0.07200000 0.00000000
0.12470766 0.08400000 0.00000000
0.11431535 0.07800000 0.00000000
0.11431535 0.06600000 0.00000000
0.10392305 0.07200000 0.00000000
0.10392305 0.08400000 0.00000000
0.09353074 0.07800000 0.00000000
0.09353074 0.06600000 0.00000000
0.08313844 0.07200000 0.00000000
0.08313844 0.06000000 0.00000000
0.07274614 0.06600000 0.00000000
0.23902301 0.07800000 0.00000000
0.23902301 0.09000000 0.00000000
0.23902301 0.06600000 0.00000000
0.09353074 0.09000000 0.00000000
0.12470766 0.23999999 0.00000000
0.12470766 0.20400000 0.00000000
0.07274614 0.07800000 0.00000000
0.06235383 0.07200000 0.00000000
0.06235383 0.06000000 0.00000000
0.23902301 0.20999999 0.00000000
0.21823840 0.15000001 0.00000000
0.22863071 0.14399999 0.00000000
0.22863071 0.15600000 0.00000000
0.05196152 0.16200000 0.00000000
0.23902301 0.15000001 0.00000000
0.23902301 0.13800000 0.00000000
0.23902301 0.16200000 0.00000000
0.23902301 0.24600001 0.00000000
0.24941532 0.21600001 0.00000000
0.24941532 0.20400000 0.00000000
0.24941532 0.08400000 0.00000000
0.24941532 0.09600000 0.00000000
0.11431535 0.24600001 0.00000000
0.09353074 0.05400000 0.00000000
0.10392305 0.09600000 0.00000000
0.06235383 0.08400000 0.00000000
0.05196152 0.07800000 0.00000000
0.16627687 0.09600000 0.00000000
0.05196152 0.20999999 0.00000000
0.05196152 0.22200000 0.00000000
0.22863071 0.25200000 0.00000000
0.19745380 0.16200000 0.00000000
0.08313844 0.04800000 0.00000000
0.24941532 0.23999999 0.00000000
0.24941532 0.15600000 0.00000000
0.12470766 0.25200000 0.00000000
0.24941532 0.25200000 0.00000000
0.04156922 0.12000000 0.00000000
0.05196152 0.19800000 0.00000000
0.06235383 0.16800000 0.00000000
0.21823840 0.24600001 0.00000000
0.09353074 0.10200000 0.00000000
0.18706149 0.12000000 0.00000000
0.23902301 0.10200000 0.00000000
0.24941532 0.10800000 0.00000000
0.14549227 0.18000001 0.00000000
0.24941532 0.16800000 0.00000000
0.04156922 0.21600001 0.00000000
0.04188216 0.22800000 0.00000000
0.21823840 0.25799999 0.00000000
0.20784609 0.25200000 0.00000000
0.11431535 0.25799999 0.00000000
0.25980762 0.20999999 0.00000000
0.25924158 0.19851393 0.00000000
0.25980762 0.24600001 0.00000000
0.25953829 0.25799999 0.00000000
0.25952131 0.16150406 0.00000000
0.25975990 0.14991735 0.00000000
0.25980762 0.09000000 0.00000000
0.25980762 0.07800000 0.00000000
0.09353074 0.04200000 0.00000000
0.10392305 0.10800000 0.00000000
0.18706149 0.19200000 0.00000000
0.05196152 0.11400000 0.00000000
0.04156922 0.10800000 0.00000000
0.22863071 0.16800000 0.00000000
0.08313844 0.03600000 0.00000000
0.24937043 0.26400000 0.00000000
0.27019992 0.08400000 0.00000000
0.20784609 0.26400000 0.00000000
0.19745380 0.25799999 0.00000000
0.12470766 0.26400000 0.00000000
0.13509996 0.25799999 0.00000000
0.21823840 0.27000001 0.00000000
0.05196152 0.17399999 0.00000000
0.06235383 0.18000001 0.00000000
0.10392305 0.04800000 0.00000000
0.10392305 0.03600000 0.00000000
0.11431535 0.04200000 0.00000000
0.21823840 0.11400000 0.00000000
0.07274614 0.04200000 0.00000000
0.09353074 0.11400000 0.00000000
0.08313844 0.10800000 0.00000000
0.11431535 0.10200000 0.00000000
0.11431535 0.11400000 0.00000000
0.12470766 0.10800000 0.00000000
0.04156922 0.16800000 0.00000000
0.04156922 0.18000001 0.00000000
0.05201368 0.23400000 0.00000000
0.04194301 0.23999999 0.00000000
0.05203252 0.24600001 0.00000000
0.04208117 0.25200000 0.00000000
0.05232367 0.25754103 0.00000000
0.04232912 0.26542935 0.00000000
0.17666918 0.13800000 0.00000000
0.07274614 0.17399999 0.00000000
0.23902301 0.19800000 0.00000000
0.20784609 0.19200000 0.00000000
0.23902301 0.11400000 0.00000000
0.24941532 0.12000000 0.00000000
0.25980762 0.11400000 0.00000000
0.25980762 0.12600000 0.00000000
0.10392305 0.25200000 0.00000000
0.10392305 0.26400000 0.00000000
0.09353074 0.25799999 0.00000000
0.25980762 0.22200000 0.00000000
0.27019992 0.21600001 0.00000000
0.06235383 0.12000000 0.00000000
0.06242602 0.25192350 0.00000000
0.06269120 0.26345178 0.00000000
0.06235383 0.10800000 0.00000000
0.25980762 0.17399999 0.00000000
0.03117692 0.11400000 0.00000000
0.03117692 0.10200000 0.00000000
0.03123473 0.22193553 0.00000000
0.03118655 0.20998925 0.00000000
0.03076844 0.24669613 0.00000000
0.09361074 0.27006570 0.00000000
0.13492428 0.26969570 0.00000000
0.14535604 0.26376405 0.00000000
0.14546956 0.25196066 0.00000000
0.15575114 0.25776890 0.00000000
0.15585855 0.24595493 0.00000000
0.16625030 0.25195396 0.00000000
0.16627540 0.26353973 0.00000000
0.16626811 0.23998481 0.00000000
0.17666329 0.24598980 0.00000000
0.11431535 0.03000000 0.00000000
0.12470766 0.03600000 0.00000000
0.26963389 0.22748607 0.00000000
0.26993060 0.07200000 0.00000000
0.25976273 0.06600000 0.00000000
0.26987824 0.06000000 0.00000000
0.25974652 0.05400000 0.00000000
0.26986682 0.04800000 0.00000000
0.25965744 0.04214632 0.00000000
0.26996690 0.03690196 0.00000000
0.24938010 0.04802439 0.00000000
0.24929994 0.03617477 0.00000000
0.23899791 0.04203319 0.00000000
0.26993060 0.09600000 0.00000000
0.07262178 0.03021539 0.00000000
0.06233310 0.03603590 0.00000000
0.08340057 0.02228482 0.00000000
0.19745380 0.24600001 0.00000000
0.12470766 0.04800000 0.00000000
0.13509996 0.04200000 0.00000000
0.13492428 0.03030430 0.00000000
0.14546299 0.03605071 0.00000000
0.12470766 0.12000000 0.00000000
0.13509996 0.11400000 0.00000000
0.14548738 0.04800845 0.00000000
0.15587889 0.04200986 0.00000000
0.15588458 0.03000000 0.00000000
0.16656311 0.03546574 0.00000000
0.07274614 0.18600000 0.00000000
0.08313844 0.18000001 0.00000000
0.08313844 0.12000000 0.00000000
0.13509996 0.10200000 0.00000000
0.14549227 0.10800000 0.00000000
0.14549227 0.12000000 0.00000000
0.15588458 0.11400000 0.00000000
0.07274614 0.09000000 0.00000000
0.16632363 0.04791260 0.00000000
0.17672469 0.04189639 0.00000000
0.17707308 0.02973511 0.00000000
0.18713805 0.03593858 0.00000000
0.18707272 0.04798597 0.00000000
0.19746843 0.04198743 0.00000000
0.19745599 0.05399774 0.00000000
0.20784891 0.04799753 0.00000000
0.20784900 0.03599749 0.00000000
0.21823840 0.18600000 0.00000000
0.20784609 0.18000001 0.00000000
0.03117692 0.17399999 0.00000000
0.03117692 0.18600000 0.00000000
0.05196152 0.09000000 0.00000000
0.04156922 0.08400000 0.00000000
0.04156922 0.07200000 0.00000000
0.03117692 0.07800000 0.00000000
0.03117692 0.06600000 0.00000000
0.04156922 0.06000000 0.00000000
0.03117692 0.05400000 0.00000000
0.04156922 0.04800000 0.00000000
0.03117692 0.04200000 0.00000000
0.04156922 0.03600000 0.00000000
0.03117692 0.03000000 0.00000000
0.07281440 0.25789589 0.00000000
0.07274614 0.27000001 0.00000000
0.21823935 0.04199917 0.00000000
0.21823904 0.02999944 0.00000000
0.24914600 0.18000001 0.00000000
0.02065285 0.21573979 0.00000000
0.25994828 0.26966566 0.00000000
0.26961246 0.26445821 0.00000000
0.27017295 0.27590293 0.00000000
0.26964545 0.15490358 0.00000000
0.26983026 0.14380349 0.00000000
0.26993060 0.12000000 0.00000000
0.23893911 0.03030895 0.00000000
0.19724654 0.26964101 0.00000000
0.18702695 0.26394016 0.00000000
0.18681674 0.27552789 0.00000000
0.25031072 0.27758801 0.00000000
0.23929493 0.27003923 0.00000000
0.18697870 0.02430801 0.00000000
0.20698649 0.02510325 0.00000000
0.21662840 0.01851859 0.00000000
0.25026152 0.02323652 0.00000000
0.28059223 0.07800000 0.00000000
0.28098595 0.27021745 0.00000000
0.28039271 0.22230825 0.00000000
0.28059223 0.05400000 0.00000000
0.28059223 0.20999999 0.00000000
0.06235383 0.02400000 0.00000000
0.06136179 0.27607793 0.00000000
0.14509965 0.27726945 0.00000000
0.10497375 0.27461568 0.00000000
0.12483969 0.27526408 0.00000000
0.10392305 0.02400000 0.00000000
0.11420102 0.01815087 0.00000000
0.04161904 0.02369703 0.00000000
0.03117692 0.01800000 0.00000000
0.05248106 0.01780338 0.00000000
0.02073995 0.02407735 0.00000000
0.02078461 0.04800000 0.00000000
0.02078461 0.07200000 0.00000000
0.02078461 0.08400000 0.00000000
0.02078461 0.10800000 0.00000000
0.02078461 0.13200000 0.00000000
0.06235383 0.19200000 0.00000000
0.15587877 0.23398995 0.00000000
0.16627444 0.22799580 0.00000000
0.19745380 0.23400000 0.00000000
0.03007735 0.28965235 0.00000000
0.02409024 0.27926749 0.00000000
0.01105392 0.28045452 0.00000000
0.01800000 0.26882309 0.00000000
0.02970387 0.26819435 0.00000000
0.02341061 0.25794205 0.00000000
0.01767201 0.24729019 0.00000000
0.02253136 0.23795594 0.00000000
0.16194436 0.01010916 0.00000000
0.16701832 0.02205946 0.00000000
0.13852292 0.28909197 0.00000000
0.15793717 0.28060228 0.00000000
0.26992264 0.01034765 0.00000000
0.26395619 0.02062661 0.00000000
0.24558678 0.01097443 0.00000000
0.27590245 0.02004512 0.00000000
0.28894505 0.01944729 0.00000000
0.28076571 0.03108642 0.00000000
0.28989401 0.16249593 0.00000000
0.27976191 0.16908266 0.00000000
0.27957579 0.18018045 0.00000000
0.28948197 0.18624635 0.00000000
0.27893424 0.19131525 0.00000000
0.26902968 0.18468870 0.00000000
0.11311539 0.29028678 0.00000000
0.22863071 0.10800000 0.00000000
0.22863071 0.12000000 0.00000000
0.08313844 0.19200000 0.00000000
0.09353074 0.18600000 0.00000000
0.09353074 0.17399999 0.00000000
0.10392305 0.18000001 0.00000000
0.10392305 0.19200000 0.00000000
0.11431535 0.18600000 0.00000000
0.11431535 0.17399999 0.00000000
0.12470766 0.18000001 0.00000000
0.18649717 0.01197455 0.00000000
0.03612405 0.27788851 0.00000000
0.04831802 0.27655160 0.00000000
0.05414284 0.28751993 0.00000000
0.26984084 0.10800000 0.00000000
0.28059223 0.11400000 0.00000000
0.15588321 0.22199762 0.00000000
0.14548896 0.23999426 0.00000000
0.24941532 0.13200000 0.00000000
0.23906085 0.25800654 0.00000000
0.28008839 0.09200000 0.00000000
0.28923613 0.24600001 0.00000000
0.27893350 0.25037870 0.00000000
0.27921540 0.23999999 0.00000000
0.22868234 0.26400763 0.00000000
0.22854044 0.27520114 0.00000000
0.21673821 0.28152481 0.00000000
0.20670132 0.27475721 0.00000000
0.07800000 0.28985640 0.00000000
0.05205296 0.02992272 0.00000000
0.05197331 0.04199310 0.00000000
0.08970837 0.28997889 0.00000000
0.08338811 0.27784389 0.00000000
0.21823840 0.23400000 0.00000000
0.11431535 0.20999999 0.00000000
0.01039230 0.18600000 0.00000000
0.04157082 0.20399821 0.00000000
0.03117879 0.19799791 0.00000000
0.09353074 0.03000000 0.00000000
0.18642515 0.28807601 0.00000000
0.25976944 0.10200000 0.00000000
0.09353074 0.12600000 0.00000000
0.10392305 0.06000000 0.00000000
0.03117692 0.16200000 0.00000000
0.04156922 0.15600000 0.00000000
0.15588458 0.09000000 0.00000000
0.04156952 0.19199967 0.00000000
0.11431535 0.12600000 0.00000000
0.01954655 0.01105208 0.00000000
0.17666918 0.10200000 0.00000000
0.17680441 0.26964006 0.00000000
0.12470766 0.06000000 0.00000000
0.10392305 0.12000000 0.00000000
0.20784609 0.22800000 0.00000000
0.08313844 0.23999999 0.00000000
0.13509996 0.19800000 0.00000000
0.17666918 0.17399999 0.00000000
0.21823840 0.10200000 0.00000000
0.10392305 0.20400000 0.00000000
0.21823840 0.12600000 0.00000000
0.07274614 0.05400000 0.00000000
0.11431535 0.09000000 0.00000000
0.12470766 0.09600000 0.00000000
0.09353074 0.20999999 0.00000000
0.19745380 0.18600000 0.00000000
0.24941532 0.22800000 0.00000000
0.13509996 0.16200000 0.00000000
0.18706149 0.16800000 0.00000000
0.12470766 0.13200000 0.00000000
0.14549227 0.16800000 0.00000000
0.16627687 0.14399999 0.00000000
0.18706149 0.07200000 0.00000000
0.24940784 0.07200000 0.00000000
0.07274614 0.16200000 0.00000000
0.17666918 0.18600000 0.00000000
0.13509941 0.23399904 0.00000000
0.08313844 0.09600000 0.00000000
0.07274614 0.19800000 0.00000000
0.08313844 0.16800000 0.00000000
0.14549227 0.13200000 0.00000000
0.20784609 0.23999999 0.00000000
0.10392305 0.23999999 0.00000000
0.10392305 0.13200000 0.00000000
0.08313844 0.08400000 0.00000000
0.06236252 0.22800000 0.00000000
0.21823840 0.16200000 0.00000000
0.22863071 0.13200000 0.00000000
0.09353074 0.16200000 0.00000000
0.20784609 0.15600000 0.00000000
0.18706149 0.13200000 0.00000000
0.12458162 0.02429018 0.00000000
0.22863071 0.09600000 0.00000000
0.15588458 0.12600000 0.00000000
0.16627687 0.12000000 0.00000000
0.16627687 0.13200000 0.00000000
0.17666918 0.12600000 0.00000000
0.18706051 0.23999830 0.00000000
0.23902301 0.12600000 0.00000000
0.19745380 0.07800000 0.00000000
0.22863071 0.19200000 0.00000000
0.13509996 0.09000000 0.00000000
0.10392305 0.16800000 0.00000000
0.11472161 0.26928440 0.00000000
0.24940737 0.14398623 0.00000000
0.11431535 0.16200000 0.00000000
0.13509554 0.24599233 0.00000000
0.23897813 0.17399999 0.00000000
0.08313844 0.13200000 0.00000000
0.06235383 0.09600000 0.00000000
0.22863071 0.20400000 0.00000000
0.06235383 0.13200000 0.00000000
0.05196157 0.18599994 0.00000000
0.13509996 0.12600000 0.00000000
0.26986754 0.28786901 0.00000000
0.13509996 0.17399999 0.00000000
0.05196152 0.06600000 0.00000000
0.16627625 0.21599890 0.00000000
0.14549227 0.19200000 0.00000000
0.08986644 0.01056695 0.00000000
0.07800000 0.01039230 0.00000000
0.18706149 0.10800000 0.00000000
0.26982412 0.13196725 0.00000000
0.12470766 0.16800000 0.00000000
0.14549145 0.06000141 0.00000000
0.14549227 0.09600000 0.00000000
0.11431535 0.05400000 0.00000000
0.17666867 0.22199912 0.00000000
0.19745380 0.19800000 0.00000000
0.14490253 0.02232056 0.00000000
0.22863071 0.06000000 0.00000000
0.17666608 0.23399463 0.00000000
0.20784609 0.07200000 0.00000000
0.25971225 0.13796122 0.00000000
0.28059223 0.13800000 0.00000000
0.01039230 0.16200000 0.00000000
0.19710515 0.03058144 0.00000000
0.12470766 0.19200000 0.00000000
0.13509996 0.18600000 0.00000000
0.24549605 0.28974989 0.00000000
0.27002090 0.20428985 0.00000000
0.06235234 0.04800483 0.00000000
0.15588458 0.10200000 0.00000000
0.09353074 0.24600001 0.00000000
0.11431535 0.19800000 0.00000000
0.18706149 0.18000001 0.00000000
0.13826713 0.01058813 0.00000000
0.17666918 0.11400000 0.00000000
0.18705459 0.25198805 0.00000000
0.07274614 0.12600000 0.00000000
0.01034020 0.03009024 0.00000000
0.25944397 0.23391435 0.00000000
0.16627687 0.10800000 0.00000000
0.09353074 0.19800000 0.00000000
0.17667177 0.25795886 0.00000000
0.13509901 0.05400164 0.00000000
0.06238784 0.23998725 0.00000000
0.19745380 0.17399999 0.00000000
0.05196324 0.05399965 0.00000000
0.24939054 0.06000406 0.00000000
0.16628467 0.05998543 0.00000000
0.15589176 0.05398629 0.00000000
0.20784609 0.16800000 0.00000000
0.21823840 0.17399999 0.00000000
0.17667949 0.05398133 0.00000000
0.07274614 0.10200000 0.00000000
0.07274614 0.11400000 0.00000000
0.22862323 0.18000001 0.00000000
0.07274614 0.24600001 0.00000000
0.02078461 0.16800000 0.00000000
0.03117692 0.09000000 0.00000000
0.02076457 0.20395449 0.00000000
0.21823840 0.05400000 0.00000000
0.20784652 0.05999960 0.00000000
0.02076848 0.03602793 0.00000000
0.18706252 0.05999848 0.00000000
0.19745441 0.06599930 0.00000000
0.23901932 0.05400268 0.00000000
0.05196152 0.10200000 0.00000000
0.08314981 0.25198266 0.00000000
0.22801365 0.02499335 0.00000000
0.23896940 0.18600000 0.00000000
0.03117692 0.12600000 0.00000000
0.01039230 0.05400000 0.00000000
0.24899784 0.19208565 0.00000000
0.22850996 0.03622235 0.00000000
0.01039230 0.11400000 0.00000000
0.04156922 0.09600000 0.00000000
0.02078461 0.18000001 0.00000000
0.22860594 0.04804290 0.00000000
0.08320665 0.26429802 0.00000000
0.02078461 0.06000000 0.00000000
0.02078158 0.19199207 0.00000000
0.02078461 0.12000000 0.00000000
0.01039230 0.07800000 0.00000000
0.02078461 0.09600000 0.00000000
0.01036701 0.20994905 0.00000000
0.01039230 0.09000000 0.00000000
0.01036361 0.22191370 0.00000000
0.21019749 0.00881875 0.00000000
0.21021579 0.29118848 0.00000000
0.16228691 0.29063538 0.00000000
0.28141153 0.28994745 0.00000000
0.26017427 0.03100045 0.00000000
0.15575580 0.26924914 0.00000000
0.07207213 0.01946827 0.00000000
0.07229920 0.28067717 0.00000000
0.15596426 0.01906264 0.00000000
0.23740414 0.28135890 0.00000000
0.16703564 0.27443254 0.00000000
0.29172155 0.27005160 0.00000000
0.26874819 0.25234362 0.00000000
0.26933926 0.24005410 0.00000000
0.29011691 0.21983510 0.00000000
0.29184043 0.20982654 0.00000000
0.27812180 0.14913653 0.00000000
0.29196152 0.13800000 0.00000000
0.27089429 0.17430370 0.00000000
0.27810937 0.12599345 0.00000000
0.25865874 0.18671189 0.00000000
0.29196152 0.11400000 0.00000000
0.27801195 0.10240000 0.00000000
0.29025197 0.08833333 0.00000000
0.29209039 0.07766667 0.00000000
0.27812019 0.06600000 0.00000000
0.29196152 0.05400000 0.00000000
0.27815986 0.04239768 0.00000000
0.02050440 0.22698410 0.00000000
0.03264399 0.23389465 0.00000000
0.23723218 0.01905176 0.00000000
0.09473706 0.01965882 0.00000000
0.09688804 0.28108504 0.00000000
0.22200000 0.00839304 0.00000000
0.22200000 0.29160696 0.00000000
0.13359421 0.01979266 0.00000000
0.13377227 0.27984184 0.00000000
0.17677893 0.28023618 0.00000000
0.27887446 0.28049567 0.00000000
0.17824669 0.01965534 0.00000000
0.26147261 0.28004542 0.00000000
0.03000000 0.00803848 0.00000000
0.00801370 0.26986402 0.00000000
0.29196152 0.03000000 0.00000000
0.11400000 0.00800276 0.00000000
0.19621024 0.02015390 0.00000000
0.19621024 0.27984610 0.00000000
0.11557019 0.27982655 0.00000000
0.05400000 0.00785027 0.00000000
0.00783075 0.24600001 0.00000000
0.03376605 0.25801364 0.00000000
0.05344667 0.26764914 0.00000000
0.00878461 0.00878461 0.00000000
0.29121539 0.00878461 0.00000000
0.00878461 0.29121539 0.00000000
0.29121539 0.29121539 0.00000000
0.26890159 0.16513821 0.00000000
0.28034616 0.15878750 0.00000000
0.26877502 0.19475205 0.00000000
0.27807274 0.20049548 0.00000000
0.27777100 0.25983754 0.00000000
0.27844828 0.23133133 0.00000000
0.16769354 0.28343171 0.00000000
0.27003986 0.02739842 0.00000000
0.22698461 0.01548733 0.00000000
0.22698461 0.28451267 0.00000000
0.10716867 0.28338084 0.00000000
0.20573013 0.01642534 0.00000000
0.20569871 0.28355688 0.00000000
3 472 123 511
3 534 357 535
3 418 417 507
3 467 129 661
3 117 478 487
3 102 651 668
3 480 103 508
3 502 357 534
3 641 407 642
3 555 452 712
3 71 72 536
3 123 472 512
3 120 534 535
3 120 535 536
3 129 467 761
3 504 118 505
3 545 733 734
3 546 545 734
3 475 477 735
3 735 477 736
3 744 473 745
3 543 473 744
3 381 555 712
3 117 487 769
3 429 418 507
3 380 503 504
3 483 108 484
3 118 504 770
3 668 651 756
3 480 508 757
3 749 378 750
3 112 71 536
3 72 120 536
3 4 5 571
3 28 29 514
3 76 77 500
3 479 112 536
3 103 480 509
3 484 133 613
3 507 417 729
3 407 641 752
3 535 479 536
3 23 24 512
3 472 511 725
3 135 656 740
3 656 135 738
3 109 538 743
3 538 109 742
3 474 121 732
3 477 107 736
3 473 116 745
3 116 473 746
3 476 131 747
3 131 476 748
3 136 474 732
3 114 475 735
3 521 375 739
3 375 521 741
3 543 109 743
3 109 543 744
3 538 135 740
3 135 538 742
3 476 116 746
3 100 656 738
3 116 476 747
3 656 100 737
3 505 749 750
3 121 474 781
3 107 477 780
3 475 114 782
3 474 136 759
3 130 485 486
3 501 128 503
3 482 124 768
3 380 504 505
3 4 571 773
3 28 514 774
3 76 500 775
3 469 533 766
3 562 466 767
3 503 128 504
3 642 407 727
3 452 555 728
3 485 130 487
3 484 108 765
3 115 23 512
3 24 123 512
3 636 459 759
3 503 380 771
3 651 102 729
3 124 522 768
3 459 636 761
3 471 470 788
3 550 549 789
3 721 471 788
3 549 722 789
3 533 105 766
3 111 562 767
3 133 484 765
3 466 562 758
3 613 133 756
3 124 482 757
3 478 117 727
3 112 479 728
3 467 661 730
3 108 483 752
3 479 535 772
3 485 487 552
3 487 478 552
3 533 469 760
3 726 388 731
3 103 509 723
3 317 741 779
3 734 393 782
3 458 733 781
3 128 501 763
3 131 515 764
3 130 486 762
3 777 460 778
3 517 777 778
3 106 753 787
3 94 113 716
3 139 488 672
3 113 490 716
3 488 139 571
3 672 488 696
3 122 672 696
3 122 489 705
3 489 122 696
3 705 489 713
3 560 693 714
3 113 705 713
3 93 94 716
3 490 113 713
3 449 485 552
3 693 110 714
3 104 492 708
3 144 141 493
3 141 140 493
3 338 339 634
3 447 449 553
3 101 88 140
3 560 439 569
3 92 93 719
3 339 419 494
3 339 494 634
3 88 89 140
3 101 140 141
3 449 552 553
3 494 419 600
3 518 520 521
3 419 525 600
3 96 122 705
3 91 104 708
3 337 548 549
3 16 17 506
3 64 65 508
3 40 41 516
3 186 180 539
3 408 497 603
3 525 217 600
3 98 139 672
3 43 107 519
3 89 125 140
3 513 138 514
3 497 576 603
3 439 351 569
3 586 217 675
3 519 107 520
3 337 547 548
3 510 138 513
3 388 387 676
3 102 16 506
3 569 351 634
3 103 64 508
3 464 333 550
3 518 519 520
3 100 40 516
3 313 294 547
3 140 125 493
3 196 495 540
3 26 138 510
3 196 186 539
3 351 338 634
3 217 525 675
3 649 201 653
3 496 649 653
3 499 502 534
3 498 499 534
3 201 497 619
3 574 256 648
3 499 137 500
3 513 514 515
3 499 500 501
3 337 313 547
3 495 196 539
3 17 127 506
3 120 73 498
3 120 498 534
3 343 523 524
3 386 384 540
3 201 619 653
3 65 124 508
3 41 126 516
3 343 524 582
3 89 90 125
3 404 537 563
3 447 553 680
3 42 43 519
3 496 539 639
3 87 88 101
3 498 137 499
3 544 121 545
3 544 545 546
3 496 639 649
3 439 560 714
3 506 127 507
3 495 386 540
3 540 384 628
3 516 126 517
3 67 106 522
3 101 141 142
3 409 410 677
3 331 468 542
3 384 336 628
3 294 542 547
3 19 105 533
3 48 121 544
3 573 388 676
3 300 331 542
3 557 581 666
3 330 407 561
3 497 408 619
3 74 75 137
3 74 137 498
3 65 66 124
3 50 51 136
3 333 337 550
3 17 18 127
3 41 42 126
3 523 343 580
3 123 510 511
3 542 468 547
3 537 364 563
3 98 99 139
3 26 27 138
3 70 112 551
3 409 574 648
3 539 180 639
3 124 66 522
3 502 501 503
3 449 450 485
3 511 510 513
3 332 473 543
3 566 143 567
3 331 457 467
3 142 143 566
3 127 18 533
3 564 575 605
3 337 549 550
3 215 304 556
3 256 565 648
3 70 71 112
3 106 68 554
3 94 95 113
3 156 564 605
3 22 23 115
3 46 47 114
3 582 524 609
3 581 529 666
3 200 215 556
3 324 330 561
3 445 447 680
3 574 409 677
3 188 189 576
3 485 450 486
3 263 272 583
3 554 551 555
3 24 25 123
3 559 560 569
3 96 97 122
3 101 142 657
3 48 49 121
3 123 25 510
3 72 73 120
3 279 541 626
3 311 379 559
3 229 231 580
3 497 188 576
3 547 468 548
3 663 272 680
3 300 319 331
3 281 300 542
3 114 47 544
3 269 194 557
3 114 544 546
3 587 361 650
3 447 448 449
3 87 101 657
3 321 626 655
3 256 257 565
3 353 355 380
3 215 281 294
3 200 214 215
3 69 70 551
3 331 319 457
3 292 311 559
3 215 214 281
3 25 26 510
3 580 240 614
3 84 85 558
3 609 524 620
3 692 441 709
3 322 323 332
3 576 556 603
3 15 16 102
3 559 379 560
3 541 279 620
3 332 394 473
3 69 551 554
3 364 308 563
3 63 64 103
3 343 229 580
3 39 40 100
3 294 281 542
3 382 336 383
3 195 200 556
3 285 284 322
3 287 296 324
3 379 378 456
3 404 332 543
3 331 467 468
3 145 148 567
3 160 570 591
3 260 262 287
3 330 405 407
3 73 74 498
3 324 296 330
3 383 384 385
3 304 294 313
3 333 313 337
3 570 413 591
3 462 537 538
3 383 336 384
3 265 264 284
3 396 398 476
3 322 404 563
3 445 446 447
3 287 262 296
3 143 145 567
3 279 609 620
3 581 586 675
3 257 260 565
3 499 501 502
3 47 48 544
3 314 313 333
3 194 198 557
3 438 351 439
3 462 364 537
3 311 312 378
3 322 332 404
3 148 277 567
3 626 541 655
3 302 292 559
3 250 245 568
3 189 195 576
3 442 445 638
3 322 284 323
3 292 293 311
3 242 264 265
3 382 383 480
3 332 323 394
3 216 212 292
3 391 341 483
3 126 42 519
3 336 299 628
3 350 351 438
3 385 387 388
3 326 587 650
3 553 663 680
3 231 240 580
3 523 580 614
3 285 322 563
3 340 324 341
3 335 299 336
3 287 340 565
3 242 243 264
3 198 203 204
3 260 287 565
3 253 256 574
3 265 284 285
3 211 209 212
3 311 378 379
3 421 564 630
3 350 338 351
3 385 386 387
3 311 293 312
3 277 338 350
3 142 141 143
3 215 294 304
3 643 306 669
3 245 238 568
3 575 570 605
3 248 245 249
3 205 207 208
3 483 341 561
3 60 61 562
3 208 207 209
3 240 242 614
3 431 432 433
3 204 203 205
3 631 426 687
3 304 313 314
3 224 223 225
3 602 164 635
3 66 67 522
3 292 212 293
3 196 540 598
3 335 336 382
3 341 324 561
3 405 406 478
3 449 448 450
3 330 344 405
3 67 68 106
3 216 292 302
3 249 245 250
3 282 369 588
3 18 19 533
3 277 350 567
3 281 297 300
3 385 384 386
3 442 444 445
3 283 273 360
3 323 284 595
3 349 347 585
3 205 208 586
3 222 221 223
3 68 69 554
3 287 324 340
3 334 333 464
3 302 559 569
3 208 209 211
3 387 389 390
3 275 239 609
3 460 321 461
3 211 212 216
3 308 285 563
3 363 308 364
3 91 92 104
3 249 250 251
3 350 566 567
3 252 253 574
3 236 234 572
3 289 270 426
3 19 20 105
3 225 227 582
3 238 291 568
3 348 570 575
3 43 44 107
3 253 255 256
3 240 241 242
3 192 190 361
3 391 483 484
3 195 556 576
3 365 364 462
3 200 213 214
3 227 343 582
3 249 251 252
3 277 303 338
3 208 217 586
3 255 254 584
3 258 255 584
3 205 206 207
3 350 438 566
3 244 238 245
3 198 202 203
3 387 386 389
3 422 349 585
3 177 176 178
3 436 361 437
3 320 298 321
3 389 495 496
3 193 196 598
3 198 204 557
3 433 432 434
3 421 345 564
3 192 361 436
3 387 390 676
3 252 251 253
3 169 170 171
3 225 223 226
3 358 593 617
3 218 327 371
3 325 348 575
3 260 261 262
3 172 171 173
3 175 173 176
3 237 236 238
3 640 578 660
3 238 236 291
3 220 219 221
3 267 258 288
3 269 557 666
3 617 616 618
3 671 371 688
3 321 298 626
3 291 236 572
3 187 269 578
3 426 270 606
3 244 245 248
3 237 238 244
3 166 167 169
3 187 194 269
3 224 225 239
3 340 341 342
3 197 193 598
3 447 446 448
3 201 188 497
3 222 223 224
3 184 188 201
3 293 212 607
3 564 156 630
3 347 584 585
3 557 204 581
3 523 362 524
3 360 273 632
3 307 285 308
3 305 325 345
3 225 226 227
3 204 205 586
3 151 149 152
3 346 345 421
3 342 341 391
3 288 258 584
3 239 582 609
3 305 288 325
3 612 358 618
3 176 173 597
3 239 225 582
3 314 333 334
3 195 199 200
3 465 464 466
3 496 495 539
3 325 288 347
3 253 251 254
3 267 288 305
3 363 364 365
3 181 187 578
3 325 347 348
3 221 219 358
3 220 221 222
3 517 126 518
3 572 234 643
3 169 171 172
3 264 266 595
3 169 167 170
3 178 176 179
3 345 325 575
3 231 233 240
3 486 488 571
3 395 323 595
3 163 165 166
3 155 153 156
3 253 254 255
3 194 197 198
3 330 296 344
3 437 361 587
3 347 288 584
3 622 360 632
3 348 413 570
3 257 259 260
3 361 190 650
3 178 179 182
3 570 160 605
3 362 308 363
3 227 229 343
3 564 345 575
3 530 528 531
3 348 347 349
3 593 168 617
3 584 254 585
3 530 531 532
3 182 183 184
3 338 303 339
3 581 204 586
3 320 321 460
3 145 146 147
3 151 152 153
3 163 166 589
3 263 271 272
3 184 185 188
3 166 165 167
3 173 171 579
3 445 444 446
3 208 211 217
3 305 345 346
3 556 304 603
3 155 156 157
3 366 368 665
3 166 169 592
3 366 367 368
3 591 413 635
3 389 386 495
3 189 191 195
3 302 569 634
3 159 157 160
3 162 161 163
3 278 275 279
3 348 349 413
3 414 349 422
3 422 585 623
3 248 249 646
3 169 172 592
3 235 236 237
3 148 150 277
3 181 578 640
3 159 161 162
3 274 239 275
3 415 416 683
3 431 430 432
3 162 163 589
3 312 352 353
3 526 420 527
3 226 223 612
3 300 318 319
3 264 243 266
3 221 358 612
3 284 264 595
3 405 344 406
3 179 176 597
3 159 160 161
3 171 170 174
3 434 435 453
3 307 362 523
3 599 426 606
3 277 150 303
3 205 203 206
3 579 174 590
3 174 219 220
3 174 220 590
3 223 221 612
3 161 160 591
3 193 186 196
3 424 602 635
3 256 255 257
3 424 425 615
3 279 275 609
3 209 207 210
3 424 423 425
3 526 527 528
3 172 309 592
3 589 166 592
3 529 528 530
3 572 669 674
3 610 158 624
3 339 359 419
3 145 147 148
3 371 327 374
3 428 430 431
3 154 153 155
3 187 193 194
3 235 234 236
3 172 173 175
3 164 591 635
3 281 214 297
3 259 258 267
3 158 157 159
3 174 170 219
3 242 241 243
3 267 305 599
3 212 209 607
3 413 349 414
3 526 528 529
3 163 164 165
3 265 285 307
3 163 161 164
3 419 359 420
3 419 420 525
3 220 222 295
3 240 233 241
3 271 270 289
3 148 147 149
3 414 422 423
3 394 395 396
3 602 424 615
3 216 302 494
3 232 230 234
3 359 596 601
3 414 423 424
3 363 365 541
3 192 436 622
3 369 393 673
3 259 267 606
3 155 157 158
3 334 464 465
3 191 190 192
3 224 239 274
3 339 303 359
3 531 528 624
3 254 251 623
3 157 156 605
3 615 616 617
3 525 420 526
3 286 366 604
3 220 295 590
3 262 263 583
3 307 308 362
3 160 157 605
3 151 153 154
3 596 154 601
3 164 161 591
3 175 176 177
3 358 219 593
3 305 346 599
3 389 496 653
3 615 425 616
3 585 254 623
3 150 149 151
3 422 623 647
3 171 174 579
3 173 579 597
3 165 164 602
3 276 275 278
3 410 415 677
3 278 279 626
3 369 370 393
3 527 610 624
3 306 612 618
3 280 278 298
3 156 153 630
3 352 293 607
3 276 280 329
3 583 272 663
3 527 420 601
3 440 289 631
3 268 197 598
3 532 531 645
3 306 618 669
3 181 186 187
3 359 303 596
3 177 178 180
3 363 541 620
3 572 643 669
3 192 622 632
3 227 226 228
3 172 175 309
3 306 226 612
3 315 299 335
3 282 273 283
3 303 150 596
3 150 151 596
3 152 149 633
3 158 159 627
3 274 276 608
3 267 599 606
3 358 617 618
3 151 154 596
3 260 259 261
3 167 165 168
3 257 255 258
3 290 289 440
3 420 359 601
3 274 275 276
3 637 532 645
3 326 179 597
3 178 182 639
3 145 144 146
3 181 180 186
3 219 170 593
3 250 568 647
3 209 210 607
3 184 201 649
3 227 228 229
3 155 158 610
3 365 462 644
3 198 197 202
3 251 250 623
3 524 362 620
3 232 234 235
3 457 458 459
3 217 211 600
3 182 179 183
3 170 167 593
3 307 523 614
3 180 178 639
3 270 261 606
3 286 315 366
3 148 149 150
3 153 152 630
3 316 283 317
3 286 268 299
3 413 414 635
3 263 261 270
3 276 278 280
3 235 237 594
3 168 165 602
3 276 329 608
3 168 615 617
3 374 631 687
3 624 158 627
3 242 265 614
3 310 375 455
3 423 647 664
3 262 261 263
3 159 162 627
3 228 306 643
3 565 340 648
3 183 179 326
3 154 155 610
3 465 466 573
3 187 186 193
3 295 222 611
3 531 624 627
3 230 228 643
3 177 180 181
3 423 422 647
3 213 282 588
3 184 183 185
3 304 314 603
3 195 191 199
3 282 316 369
3 202 197 268
3 335 382 482
3 257 258 259
3 280 298 310
3 263 270 271
3 312 293 352
3 528 527 624
3 228 226 306
3 416 418 427
3 362 363 620
3 261 259 606
3 211 216 600
3 598 540 628
3 453 435 454
3 182 184 649
3 237 244 246
3 314 334 408
3 53 54 636
3 274 608 611
3 231 230 232
3 578 659 660
3 194 193 197
3 391 484 613
3 143 144 145
3 188 185 189
3 601 154 610
3 224 274 611
3 229 230 231
3 342 391 392
3 478 406 552
3 249 252 646
3 149 147 633
3 394 323 395
3 353 354 355
3 342 392 409
3 272 271 638
3 298 278 626
3 289 426 631
3 410 392 411
3 527 601 610
3 207 206 577
3 592 309 637
3 143 141 144
3 222 224 611
3 314 408 603
3 410 412 415
3 167 168 593
3 229 228 230
3 434 432 435
3 390 619 670
3 231 232 233
3 214 213 588
3 315 335 625
3 200 199 213
3 216 494 600
3 368 367 381
3 589 592 637
3 168 602 615
3 189 185 190
3 147 146 218
3 310 298 320
3 271 289 290
3 627 162 645
3 125 708 715
3 366 315 367
3 296 262 583
3 191 192 632
3 639 182 649
3 309 175 640
3 203 202 604
3 623 250 647
3 461 321 655
3 414 424 635
3 409 392 410
3 531 627 645
3 202 268 286
3 162 589 645
3 589 637 645
3 442 443 444
3 566 438 691
3 189 190 191
3 234 230 643
3 416 412 417
3 299 268 628
3 494 302 634
3 457 319 458
3 213 273 282
3 232 235 621
3 646 415 683
3 265 307 614
3 396 397 398
3 309 640 660
3 10 11 641
3 290 441 442
3 177 181 640
3 647 568 664
3 329 280 629
3 578 269 659
3 310 455 629
3 282 283 316
3 461 644 656
3 80 81 118
3 83 84 110
3 369 316 370
3 97 98 672
3 213 199 273
3 415 412 416
3 390 389 653
3 56 57 119
3 568 291 664
3 412 411 651
3 237 246 594
3 233 232 621
3 243 241 247
3 393 370 475
3 218 371 633
3 667 590 679
3 9 10 642
3 175 177 640
3 286 299 315
3 619 390 653
3 335 482 625
3 183 326 650
3 669 616 674
3 541 365 655
3 454 470 471
3 340 342 648
3 85 132 558
3 310 320 375
3 410 411 412
3 11 12 108
3 290 440 441
3 206 203 604
3 210 207 577
3 344 296 583
3 402 401 403
3 416 417 418
3 35 36 109
3 59 60 111
3 235 594 621
3 342 409 648
3 32 33 116
3 280 310 629
3 373 372 451
3 442 441 443
3 8 9 117
3 300 297 318
3 152 633 671
3 427 418 428
3 190 185 650
3 444 443 490
3 365 644 655
3 291 572 674
3 392 391 613
3 659 532 660
3 367 315 625
3 202 286 604
3 490 443 491
3 432 430 658
3 328 301 376
3 529 581 675
3 353 352 354
3 618 616 669
3 454 435 470
3 579 590 667
3 147 218 633
3 417 412 651
3 268 598 628
3 86 87 657
3 241 233 654
3 390 670 676
3 402 463 472
3 530 532 659
3 475 370 477
3 411 392 613
3 290 442 638
3 633 371 671
3 381 367 481
3 402 403 463
3 526 529 675
3 421 630 671
3 428 429 430
3 185 183 650
3 428 418 429
3 448 446 489
3 273 199 632
3 373 452 479
3 30 31 131
3 6 7 130
3 199 191 632
3 218 301 327
3 435 432 658
3 398 399 400
3 297 214 588
3 355 356 357
3 233 621 654
3 679 295 684
3 356 354 372
3 430 429 469
3 327 301 328
3 266 243 652
3 659 269 666
3 425 423 664
3 110 84 558
3 486 450 488
3 678 210 690
3 396 395 397
3 271 290 638
3 637 309 660
3 373 451 452
3 587 326 667
3 85 86 132
3 529 530 666
3 438 439 710
3 577 206 665
3 55 56 661
3 646 252 677
3 530 659 666
3 355 354 356
3 247 241 654
3 144 493 704
3 297 588 673
3 356 372 373
3 481 367 625
3 328 376 377
3 552 406 553
3 316 317 662
3 399 401 402
3 644 461 655
3 595 266 681
3 638 445 680
3 421 671 688
3 587 667 679
3 243 247 652
3 532 637 660
3 206 604 665
3 430 469 658
3 399 397 401
3 607 210 678
3 326 597 667
3 597 579 667
3 406 344 663
3 10 641 642
3 318 297 673
3 518 126 519
3 681 266 699
3 470 435 658
3 604 366 665
3 398 397 399
3 218 146 301
3 408 334 670
3 664 291 674
3 377 376 492
3 11 108 641
3 588 369 673
3 415 646 677
3 334 465 670
3 252 574 677
3 616 425 674
3 437 679 684
3 117 9 642
3 560 379 693
3 246 244 682
3 111 60 562
3 619 408 670
3 525 526 675
3 477 370 662
3 425 664 674
3 630 152 671
3 272 638 680
3 459 458 474
3 682 248 683
3 370 316 662
3 695 654 698
3 440 631 700
3 416 427 683
3 344 583 663
3 608 329 685
3 295 611 684
3 248 646 683
3 122 97 672
3 372 678 690
3 465 573 676
3 374 327 700
3 553 406 663
3 670 465 676
3 78 79 128
3 54 55 129
3 13 14 133
3 37 38 135
3 61 62 134
3 631 374 700
3 437 587 679
3 244 248 682
3 685 329 689
3 590 295 679
3 15 102 668
3 371 374 688
3 132 86 657
3 352 607 678
3 454 702 707
3 61 134 562
3 427 682 683
3 395 595 681
3 95 96 705
3 372 354 678
3 436 437 685
3 611 608 684
3 426 599 687
3 54 129 636
3 657 142 691
3 56 119 661
3 329 629 689
3 428 431 686
3 401 681 699
3 14 15 668
3 431 433 697
3 354 352 678
3 317 283 706
3 377 692 709
3 491 717 719
3 491 443 692
3 401 397 681
3 427 428 686
3 686 431 697
3 654 621 698
3 440 700 709
3 448 489 696
3 376 704 715
3 599 346 687
3 146 144 704
3 397 395 681
3 346 421 688
3 436 685 689
3 441 440 709
3 368 381 712
3 403 699 711
3 246 682 686
3 246 686 697
3 665 368 701
3 129 55 661
3 710 439 714
3 433 695 698
3 687 346 688
3 210 577 690
3 697 433 698
3 488 450 696
3 622 436 689
3 90 91 708
3 266 652 699
3 703 455 706
3 374 687 688
3 702 463 707
3 682 427 686
3 379 456 693
3 142 566 691
3 433 434 695
3 437 684 685
3 451 372 690
3 684 608 685
3 450 448 696
3 434 453 694
3 132 657 691
3 689 629 703
3 691 438 710
3 443 441 692
3 629 455 703
3 690 577 701
3 708 492 715
3 594 246 697
3 247 654 695
3 594 697 698
3 376 301 704
3 694 247 695
3 652 247 694
3 621 594 698
3 453 454 707
3 360 703 706
3 403 401 699
3 704 493 715
3 133 14 668
3 444 490 713
3 707 403 711
3 699 652 711
3 327 328 700
3 451 690 701
3 434 694 695
3 577 665 701
3 622 689 703
3 454 471 702
3 113 95 705
3 489 446 713
3 125 90 708
3 360 622 703
3 492 104 717
3 283 360 706
3 700 328 709
3 493 125 715
3 463 403 707
3 301 146 704
3 491 692 717
3 132 691 710
3 558 132 710
3 93 716 719
3 328 377 709
3 701 368 712
3 453 707 711
3 558 710 714
3 451 701 712
3 446 444 713
3 452 451 712
3 693 456 718
3 718 456 720
3 652 694 711
3 694 453 711
3 83 110 718
3 110 558 714
3 490 491 716
3 717 104 719
3 492 376 715
3 118 81 720
3 110 693 718
3 104 92 719
3 377 492 717
3 692 377 717
3 82 83 718
3 82 718 720
3 81 82 720
3 716 491 719
3 636 129 761
3 724 636 759
3 753 481 787
3 505 118 749
3 535 357 772
3 509 480 726
3 515 131 748
3 20 21 721
3 58 59 722
3 546 734 782
3 741 521 779
3 733 545 781
3 63 103 723
3 134 62 723
3 548 730 786
3 52 53 724
3 509 726 731
3 380 505 750
3 105 20 721
3 59 111 722
3 402 472 725
3 400 399 725
3 515 400 784
3 555 381 753
3 58 722 755
3 721 21 754
3 562 134 758
3 480 383 726
3 385 388 726
3 62 63 723
3 504 128 770
3 400 515 748
3 407 405 727
3 555 551 728
3 506 507 729
3 133 668 756
3 508 124 757
3 548 468 730
3 50 136 732
3 121 49 732
3 458 319 733
3 518 521 739
3 673 393 734
3 46 114 735
3 107 44 736
3 538 537 743
3 39 100 738
3 462 538 740
3 461 656 737
3 404 543 743
3 656 644 740
3 109 36 742
3 135 38 738
3 396 476 746
3 37 135 742
3 35 109 744
3 473 394 746
3 455 375 741
3 116 33 745
3 317 706 741
3 476 398 748
3 32 116 747
3 131 31 747
3 53 636 724
3 456 378 749
3 118 720 749
3 730 119 786
3 487 130 769
3 353 380 750
3 378 312 750
3 471 721 754
3 722 549 755
3 561 407 752
3 22 115 754
3 119 57 755
3 651 411 756
3 382 480 757
3 127 533 760
3 467 457 761
3 78 128 763
3 30 131 764
3 6 130 762
3 108 12 765
3 13 133 765
3 470 658 766
3 464 550 767
3 481 625 768
3 8 117 769
3 130 7 769
3 80 118 770
3 128 79 770
3 380 355 771
3 641 108 752
3 106 554 753
3 373 479 772
3 357 356 772
3 571 139 773
3 99 0 773
3 27 1 774
3 0 4 773
3 1 28 774
3 514 138 774
3 51 2 776
3 75 3 775
3 3 76 775
3 2 52 776
3 500 137 775
3 417 651 729
3 100 516 778
3 375 320 777
3 399 402 725
3 513 515 784
3 512 472 751
3 357 502 771
3 472 463 751
3 383 385 726
3 429 507 760
3 661 119 730
3 117 642 727
3 405 478 727
3 479 452 728
3 551 112 728
3 102 506 729
3 502 503 771
3 468 467 730
3 388 573 731
3 463 702 751
3 49 50 732
3 319 318 733
3 733 318 734
3 318 673 734
3 45 46 735
3 45 735 736
3 44 45 736
3 460 461 737
3 38 39 738
3 517 518 739
3 644 462 740
3 36 37 742
3 537 404 743
3 706 455 741
3 34 35 744
3 34 744 745
3 33 34 745
3 394 396 746
3 31 32 747
3 398 400 748
3 720 456 749
3 115 512 751
3 737 100 778
3 739 375 777
3 571 5 762
3 514 29 764
3 500 77 763
3 554 555 753
3 731 573 758
3 312 353 750
3 483 561 752
3 381 481 753
3 751 702 785
3 21 22 754
3 57 58 755
3 545 121 781
3 520 107 780
3 521 520 779
3 779 520 780
3 114 546 782
3 469 429 760
3 400 725 784
3 411 613 756
3 482 382 757
3 573 466 758
3 115 751 785
3 459 474 759
3 507 127 760
3 457 459 761
3 5 6 762
3 29 30 764
3 486 571 762
3 77 78 763
3 501 500 763
3 515 514 764
3 12 13 765
3 658 469 766
3 466 464 767
3 625 482 768
3 7 8 769
3 79 80 770
3 355 357 771
3 731 758 783
3 52 724 776
3 136 724 759
3 481 768 787
3 767 550 789
3 470 766 788
3 356 373 772
3 725 511 784
3 139 99 773
3 138 27 774
3 136 51 776
3 137 75 775
3 723 509 783
3 119 755 786
3 754 115 785
3 516 517 778
3 320 460 777
3 662 317 779
3 477 662 780
3 662 779 780
3 474 458 781
3 393 475 782
3 549 548 786
3 702 471 785
3 134 723 783
3 511 513 784
3 460 737 778
3 517 739 777
3 522 106 787
3 724 136 776
3 509 731 783
3 105 721 788
3 722 111 789
3 758 134 783
3 471 754 785
3 755 549 786
3 768 522 787
3 766 105 788
3 111 767 789